<?xml version="1.0"?>
<svg xmlns="http://www.w3.org/2000/svg" viewBox="0 0 79.13 90.11" width="79.13" height="90.11"><defs><style>.cls-1{fill:none;stroke:#000;stroke-miterlimit:10;stroke-width:2.23px;}</style></defs><title>Asset 1</title><g id="Layer_2" data-name="Layer 2"><g id="Layer_1-2" data-name="Layer 1"><path class="cls-1" d="M78,21.52c0,6.91-17.22,12.55-38.45,12.55S1.12,28.43,1.12,21.52V13.67c0-6.91,17.22-12.55,38.44-12.55S78,6.76,78,13.67ZM78,49c0,6.92-17.22,12.55-38.45,12.55S1.12,55.9,1.12,49V31.33C9.38,37,24.5,39.66,39.56,39.66S69.75,37,78,31.33Zm0,27.46C78,83.36,60.79,89,39.56,89S1.12,83.36,1.12,76.44V58.79c8.26,5.69,23.38,8.34,38.44,8.34S69.75,64.48,78,58.79Z"></path></g></g></svg>