<?xml version="1.0"?>
<svg xmlns="http://www.w3.org/2000/svg" viewBox="0 0 104.52 91.46" width="104.52" height="91.46"><title>Asset 5</title><g id="Layer_2" data-name="Layer 2"><g id="Layer_1-2" data-name="Layer 1"><path d="M1.5,90V1.5H103V90ZM84.13,26.64a4.7,4.7,0,0,0-4.76,4.62V83.78a4.69,4.69,0,0,0,4.76,4.62H94.92a4.7,4.7,0,0,0,4.76-4.62V31.26a4.7,4.7,0,0,0-4.76-4.62Zm-24.84,0a4.7,4.7,0,0,0-4.76,4.62V83.78a4.69,4.69,0,0,0,4.76,4.62H70.08a4.7,4.7,0,0,0,4.76-4.62V31.26a4.7,4.7,0,0,0-4.76-4.62Zm-24.84,0a4.7,4.7,0,0,0-4.76,4.62V83.78a4.69,4.69,0,0,0,4.76,4.62H45.24A4.69,4.69,0,0,0,50,83.78V31.26a4.7,4.7,0,0,0-4.75-4.62Zm-24.84,0a4.7,4.7,0,0,0-4.76,4.62V83.78A4.69,4.69,0,0,0,9.61,88.4H20.39a4.69,4.69,0,0,0,4.76-4.62V31.26a4.7,4.7,0,0,0-4.76-4.62ZM84.13,3.71a4.76,4.76,0,0,0-4.76,4.76V19.26A4.76,4.76,0,0,0,84.13,24H94.92a4.77,4.77,0,0,0,4.76-4.76V8.47a4.77,4.77,0,0,0-4.76-4.76Zm-24.84,0a4.76,4.76,0,0,0-4.76,4.76V19.26A4.76,4.76,0,0,0,59.29,24H70.08a4.77,4.77,0,0,0,4.76-4.76V8.47a4.77,4.77,0,0,0-4.76-4.76Zm-24.84,0a4.76,4.76,0,0,0-4.76,4.76V19.26A4.76,4.76,0,0,0,34.45,24H45.24A4.76,4.76,0,0,0,50,19.26V8.47a4.76,4.76,0,0,0-4.75-4.76Zm-24.84,0A4.76,4.76,0,0,0,4.85,8.47V19.26A4.76,4.76,0,0,0,9.61,24H20.39a4.76,4.76,0,0,0,4.76-4.76V8.47a4.76,4.76,0,0,0-4.76-4.76Z"></path><path d="M101.52,3V88.46H99a6.05,6.05,0,0,0,2.23-4.68V31.26a6.16,6.16,0,0,0-4.73-5.93,6.28,6.28,0,0,0,4.73-6.07V8.47A6.26,6.26,0,0,0,98,3h3.56M81.09,3a6.26,6.26,0,0,0-3.22,5.47V19.26a6.28,6.28,0,0,0,4.73,6.07,6.16,6.16,0,0,0-4.73,5.93V83.78a6.05,6.05,0,0,0,2.23,4.68h-6a6.05,6.05,0,0,0,2.23-4.68V31.26a6.16,6.16,0,0,0-4.73-5.93,6.28,6.28,0,0,0,4.73-6.07V8.47A6.28,6.28,0,0,0,73.12,3h8M56.25,3A6.26,6.26,0,0,0,53,8.47V19.26a6.27,6.27,0,0,0,4.73,6.07A6.15,6.15,0,0,0,53,31.26V83.78a6,6,0,0,0,2.22,4.68h-6a6,6,0,0,0,2.22-4.68V31.26a6.15,6.15,0,0,0-4.73-5.93,6.27,6.27,0,0,0,4.73-6.07V8.47A6.26,6.26,0,0,0,48.27,3h8M31.41,3a6.26,6.26,0,0,0-3.22,5.47V19.26a6.27,6.27,0,0,0,4.73,6.07,6.15,6.15,0,0,0-4.73,5.93V83.78a6,6,0,0,0,2.22,4.68h-6a6,6,0,0,0,2.22-4.68V31.26a6.15,6.15,0,0,0-4.73-5.93,6.27,6.27,0,0,0,4.73-6.07V8.47A6.26,6.26,0,0,0,23.43,3h8M6.57,3A6.26,6.26,0,0,0,3.35,8.47V19.26a6.27,6.27,0,0,0,4.73,6.07,6.15,6.15,0,0,0-4.73,5.93V83.78a6,6,0,0,0,2.22,4.68H3V3H6.57m97.95-3H0V91.46H104.52V0ZM84.13,22.52a3.26,3.26,0,0,1-3.26-3.26V8.47a3.26,3.26,0,0,1,3.26-3.26H94.92a3.26,3.26,0,0,1,3.26,3.26V19.26a3.26,3.26,0,0,1-3.26,3.26Zm-24.84,0A3.26,3.26,0,0,1,56,19.26V8.47a3.26,3.26,0,0,1,3.26-3.26H70.08a3.26,3.26,0,0,1,3.26,3.26V19.26a3.26,3.26,0,0,1-3.26,3.26Zm-24.84,0a3.26,3.26,0,0,1-3.26-3.26V8.47a3.26,3.26,0,0,1,3.26-3.26H45.23a3.25,3.25,0,0,1,3.26,3.26V19.26a3.25,3.25,0,0,1-3.26,3.26Zm-24.84,0a3.26,3.26,0,0,1-3.26-3.26V8.47A3.26,3.26,0,0,1,9.61,5.21H20.39a3.26,3.26,0,0,1,3.26,3.26V19.26a3.26,3.26,0,0,1-3.26,3.26ZM84.13,86.9a3.19,3.19,0,0,1-3.26-3.12V31.26a3.19,3.19,0,0,1,3.26-3.12H94.92a3.19,3.19,0,0,1,3.26,3.12V83.78a3.19,3.19,0,0,1-3.26,3.12Zm-24.84,0A3.19,3.19,0,0,1,56,83.78V31.26a3.19,3.19,0,0,1,3.26-3.12H70.08a3.19,3.19,0,0,1,3.26,3.12V83.78a3.19,3.19,0,0,1-3.26,3.12Zm-24.84,0a3.19,3.19,0,0,1-3.26-3.12V31.26a3.19,3.19,0,0,1,3.26-3.12H45.23a3.19,3.19,0,0,1,3.26,3.12V83.78a3.18,3.18,0,0,1-3.26,3.12Zm-24.84,0a3.19,3.19,0,0,1-3.26-3.12V31.26a3.19,3.19,0,0,1,3.26-3.12H20.39a3.19,3.19,0,0,1,3.26,3.12V83.78a3.19,3.19,0,0,1-3.26,3.12Z"></path></g></g></svg>