<?xml version="1.0"?>

<svg xmlns="http://www.w3.org/2000/svg" xmlns:xlink="http://www.w3.org/1999/xlink" viewBox="0 0 612.00 360.00" width="612.00" height="360.00">
<defs> <style type="text/css"> line, polyline, polygon, path, rect, circle { fill: none; stroke: #000000; stroke-linecap: round; stroke-linejoin: round; stroke-miterlimit: 10.00; } </style>
</defs>
<rect width="100%" height="100%" style="stroke: none; fill: #FFFFFF;"></rect>
<rect x="6.12" y="3.60" width="599.76" height="352.80" style="stroke-width: 0.75; fill: #F5F5F5;"></rect>
<text x="48.48" y="82.78" style="font-size: 16.00px; font-family: Courier;" textLength="115.20px" lengthAdjust="spacingAndGlyphs">Response (Y)</text>
<rect x="56.10" y="91.80" width="99.96" height="205.80" style="stroke-width: 0.75; stroke: #000000; stroke-opacity: 0.50; fill: #4682B4; fill-opacity: 0.50;"></rect>
<text x="343.56" y="82.78" style="font-size: 16.00px; font-family: Courier;" textLength="124.80px" lengthAdjust="spacingAndGlyphs">Predictor (X)</text>
<rect x="256.02" y="91.80" width="299.88" height="205.80" style="stroke-width: 0.75; stroke: #000000; stroke-opacity: 0.50; fill: #4682B4; fill-opacity: 0.50;"></rect>
<polygon points="318.50,156.97 313.11,157.29 308.14,158.22 303.56,159.76 299.33,161.88 295.43,164.56 291.87,167.78 288.62,171.50 285.69,175.70 283.07,180.31 280.76,185.29 278.74,190.57 277.00,196.08 275.54,201.76 274.33,207.53 273.35,213.32 272.59,219.06 272.02,224.70 271.60,230.16 271.32,235.41 271.15,240.41 271.06,245.12 271.02,249.54 271.01,253.64 271.01,254.73 271.02,258.71 271.05,262.37 271.15,265.72 271.34,268.80 271.65,271.60 272.13,274.14 272.80,276.42 273.70,278.46 274.87,280.24 276.31,281.79 278.07,283.11 280.16,284.20 282.59,285.10 285.38,285.80 288.53,286.34 292.05,286.73 295.94,286.99 300.22,287.16 304.91,287.26 310.01,287.30 315.58,287.31 318.50,287.31 323.99,287.31 329.91,287.29 336.22,287.25 342.91,287.16 349.95,287.02 357.29,286.81 364.89,286.51 372.69,286.10 380.61,285.58 388.57,284.92 396.50,284.11 404.29,283.16 411.87,282.03 419.14,280.73 426.03,279.25 432.46,277.58 438.35,275.73 443.65,273.68 448.31,271.44 452.28,269.00 455.54,266.36 458.05,263.51 459.79,260.43 460.75,257.11 460.94,254.73 460.59,251.26 459.56,247.56 457.87,243.63 455.52,239.47 452.55,235.11 448.97,230.55 444.81,225.84 440.10,220.98 434.87,216.03 429.17,211.02 423.04,206.00 416.56,201.00 409.77,196.08 402.74,191.28 395.55,186.65 388.25,182.24 380.93,178.09 373.64,174.23 366.45,170.70 359.41,167.52 352.57,164.73 345.98,162.35 339.66,160.38 333.66,158.85 327.99,157.76 322.65,157.13 318.50,156.97 313.11,157.29 308.14,158.22 303.56,159.76 299.33,161.88 295.43,164.56 291.87,167.78 288.62,171.50 285.69,175.70 283.07,180.31 280.76,185.29 278.74,190.57 277.00,196.08 275.54,201.76 274.33,207.53 273.35,213.32 272.59,219.06 272.02,224.70 271.60,230.16 271.32,235.41 271.15,240.41 271.06,245.12 271.02,249.54 271.01,253.64 271.01,254.73 271.02,258.71 271.05,262.37 271.15,265.72 271.34,268.80 271.65,271.60 272.13,274.14 272.80,276.42 273.70,278.46 274.87,280.24 276.31,281.79 278.07,283.11 280.16,284.20 282.59,285.10 285.38,285.80 288.53,286.34 292.05,286.73 295.94,286.99 300.22,287.16 304.91,287.26 310.01,287.30 315.58,287.31 318.50,287.31 323.99,287.31 329.91,287.29 336.22,287.25 342.91,287.16 349.95,287.02 357.29,286.81 364.89,286.51 372.69,286.10 380.61,285.58 388.57,284.92 396.50,284.11 404.29,283.16 411.87,282.03 419.14,280.73 426.03,279.25 432.46,277.58 438.35,275.73 443.65,273.68 448.31,271.44 452.28,269.00 455.54,266.36 458.05,263.51 459.79,260.43 460.75,257.11 460.94,254.73 460.59,251.26 459.56,247.56 457.87,243.63 455.52,239.47 452.55,235.11 448.97,230.55 444.81,225.84 440.10,220.98 434.87,216.03 429.17,211.02 423.04,206.00 416.56,201.00 409.77,196.08 402.74,191.28 395.55,186.65 388.25,182.24 380.93,178.09 373.64,174.23 366.45,170.70 359.41,167.52 352.57,164.73 345.98,162.35 339.66,160.38 333.66,158.85 327.99,157.76 322.65,157.13 " style="stroke-width: 1.50; stroke: #000000; stroke-opacity: 0.80; fill: #2E8B57; fill-opacity: 0.80;"></polygon>
<line x1="248.02" y1="194.70" x2="196.04" y2="194.70" style="stroke-width: 33.75; stroke: #666666; stroke-linecap: butt; stroke-linejoin: miter;"></line>
<polyline points="219.74,181.02 196.04,194.70 219.74,208.38 " style="stroke-width: 33.75; stroke: #666666; stroke-linecap: butt; stroke-linejoin: miter;"></polyline>
<line x1="246.02" y1="194.70" x2="196.04" y2="194.70" style="stroke-width: 30.00; stroke: #999999; stroke-linecap: butt; stroke-linejoin: miter;"></line>
<polyline points="217.87,182.10 196.04,194.70 217.87,207.30 " style="stroke-width: 30.00; stroke: #999999; stroke-linecap: butt; stroke-linejoin: miter;"></polyline>
<text x="56.10" y="30.90" style="font-size: 18.00px; font-weight: bold; font-family: Courier;" textLength="248.40px" lengthAdjust="spacingAndGlyphs">Linear Regression Model</text>
<text x="56.10" y="52.21" style="font-size: 16.00px; font-family: Courier;" textLength="374.40px" lengthAdjust="spacingAndGlyphs">Relevant and Irrelevant Predictor Space</text>
</svg>
