<?xml version="1.0"?>
<svg xmlns="http://www.w3.org/2000/svg" viewBox="0 0 110.82 97.34" width="110.82" height="97.34"><defs><style>.cls-1{fill:none;stroke:#000;stroke-linecap:round;stroke-linejoin:round;stroke-width:3px;}</style></defs><title>Asset 3</title><g id="Layer_2" data-name="Layer 2"><g id="Layer_1-2" data-name="Layer 1"><path class="cls-1" d="M101.55,29.25,72.26,47.89V33.52a5.06,5.06,0,0,0-7.77-4.27L35.19,47.89V6.55a5,5,0,0,0-5-5H6.55a5,5,0,0,0-5,5.05V90.79a5,5,0,0,0,5.05,5h97.72a5,5,0,0,0,5-5V33.52A5.06,5.06,0,0,0,101.55,29.25ZM28.79,81.14H11.5V63.85H28.79Zm35.26,0H46.77V63.85H64.05Zm35.27,0H82V63.85H99.32Z"></path></g></g></svg>