<?xml version="1.0"?>

<svg xmlns="http://www.w3.org/2000/svg" xmlns:xlink="http://www.w3.org/1999/xlink" viewBox="0 0 230.40 288.00" width="230.40" height="288.00">
<defs> <style type="text/css"> line, polyline, polygon, path, rect, circle { fill: none; stroke: #000000; stroke-linecap: round; stroke-linejoin: round; stroke-miterlimit: 10.00; } </style>
</defs>
<rect width="100%" height="100%" style="stroke: none; fill: #FFFFFF;"></rect>
<defs> <clipPath id="cpNDMuNDl8MjI0LjkyfDI1Ni4xMXw1LjQ4"> <rect x="43.49" y="5.48" width="181.43" height="250.64"></rect> </clipPath>
</defs>
<polyline points="43.49,216.24 224.92,216.24 " style="stroke-width: 0.53; stroke: #EBEBEB; stroke-linecap: butt;" clip-path="url(#cpNDMuNDl8MjI0LjkyfDI1Ni4xMXw1LjQ4)"></polyline>
<polyline points="43.49,159.28 224.92,159.28 " style="stroke-width: 0.53; stroke: #EBEBEB; stroke-linecap: butt;" clip-path="url(#cpNDMuNDl8MjI0LjkyfDI1Ni4xMXw1LjQ4)"></polyline>
<polyline points="43.49,102.32 224.92,102.32 " style="stroke-width: 0.53; stroke: #EBEBEB; stroke-linecap: butt;" clip-path="url(#cpNDMuNDl8MjI0LjkyfDI1Ni4xMXw1LjQ4)"></polyline>
<polyline points="43.49,45.35 224.92,45.35 " style="stroke-width: 0.53; stroke: #EBEBEB; stroke-linecap: butt;" clip-path="url(#cpNDMuNDl8MjI0LjkyfDI1Ni4xMXw1LjQ4)"></polyline>
<polyline points="64.76,256.11 64.76,5.48 " style="stroke-width: 0.53; stroke: #EBEBEB; stroke-linecap: butt;" clip-path="url(#cpNDMuNDl8MjI0LjkyfDI1Ni4xMXw1LjQ4)"></polyline>
<polyline points="108.16,256.11 108.16,5.48 " style="stroke-width: 0.53; stroke: #EBEBEB; stroke-linecap: butt;" clip-path="url(#cpNDMuNDl8MjI0LjkyfDI1Ni4xMXw1LjQ4)"></polyline>
<polyline points="151.57,256.11 151.57,5.48 " style="stroke-width: 0.53; stroke: #EBEBEB; stroke-linecap: butt;" clip-path="url(#cpNDMuNDl8MjI0LjkyfDI1Ni4xMXw1LjQ4)"></polyline>
<polyline points="194.97,256.11 194.97,5.48 " style="stroke-width: 0.53; stroke: #EBEBEB; stroke-linecap: butt;" clip-path="url(#cpNDMuNDl8MjI0LjkyfDI1Ni4xMXw1LjQ4)"></polyline>
<polyline points="43.49,244.72 224.92,244.72 " style="stroke-width: 1.07; stroke: #EBEBEB; stroke-linecap: butt;" clip-path="url(#cpNDMuNDl8MjI0LjkyfDI1Ni4xMXw1LjQ4)"></polyline>
<polyline points="43.49,187.76 224.92,187.76 " style="stroke-width: 1.07; stroke: #EBEBEB; stroke-linecap: butt;" clip-path="url(#cpNDMuNDl8MjI0LjkyfDI1Ni4xMXw1LjQ4)"></polyline>
<polyline points="43.49,130.80 224.92,130.80 " style="stroke-width: 1.07; stroke: #EBEBEB; stroke-linecap: butt;" clip-path="url(#cpNDMuNDl8MjI0LjkyfDI1Ni4xMXw1LjQ4)"></polyline>
<polyline points="43.49,73.83 224.92,73.83 " style="stroke-width: 1.07; stroke: #EBEBEB; stroke-linecap: butt;" clip-path="url(#cpNDMuNDl8MjI0LjkyfDI1Ni4xMXw1LjQ4)"></polyline>
<polyline points="43.49,16.87 224.92,16.87 " style="stroke-width: 1.07; stroke: #EBEBEB; stroke-linecap: butt;" clip-path="url(#cpNDMuNDl8MjI0LjkyfDI1Ni4xMXw1LjQ4)"></polyline>
<polyline points="86.46,256.11 86.46,5.48 " style="stroke-width: 1.07; stroke: #EBEBEB; stroke-linecap: butt;" clip-path="url(#cpNDMuNDl8MjI0LjkyfDI1Ni4xMXw1LjQ4)"></polyline>
<polyline points="129.86,256.11 129.86,5.48 " style="stroke-width: 1.07; stroke: #EBEBEB; stroke-linecap: butt;" clip-path="url(#cpNDMuNDl8MjI0LjkyfDI1Ni4xMXw1LjQ4)"></polyline>
<polyline points="173.27,256.11 173.27,5.48 " style="stroke-width: 1.07; stroke: #EBEBEB; stroke-linecap: butt;" clip-path="url(#cpNDMuNDl8MjI0LjkyfDI1Ni4xMXw1LjQ4)"></polyline>
<polyline points="216.67,256.11 216.67,5.48 " style="stroke-width: 1.07; stroke: #EBEBEB; stroke-linecap: butt;" clip-path="url(#cpNDMuNDl8MjI0LjkyfDI1Ni4xMXw1LjQ4)"></polyline>
<polyline points="51.73,16.87 53.38,25.37 55.03,33.55 56.68,41.42 58.33,49.00 59.98,56.30 61.63,63.33 63.28,70.09 64.93,76.60 66.58,82.87 68.23,88.90 69.88,94.71 71.53,100.31 73.18,105.69 74.83,110.88 76.47,115.87 78.12,120.67 79.77,125.30 81.42,129.75 83.07,134.04 84.72,138.16 86.37,142.14 88.02,145.96 89.67,149.65 91.32,153.19 92.97,156.60 94.62,159.89 96.27,163.05 97.92,166.10 99.57,169.03 101.22,171.85 102.86,174.57 104.51,177.18 106.16,179.70 107.81,182.13 109.46,184.46 111.11,186.71 112.76,188.87 114.41,190.95 116.06,192.96 117.71,194.89 119.36,196.75 121.01,198.54 122.66,200.26 124.31,201.92 125.96,203.51 127.61,205.05 129.26,206.53 130.90,207.95 132.55,209.32 134.20,210.64 135.85,211.91 137.50,213.14 139.15,214.31 140.80,215.45 142.45,216.54 144.10,217.59 145.75,218.60 147.40,219.58 149.05,220.51 150.70,221.42 152.35,222.29 154.00,223.12 155.65,223.93 157.30,224.70 158.94,225.45 160.59,226.17 162.24,226.86 163.89,227.53 165.54,228.17 167.19,228.78 168.84,229.38 170.49,229.95 172.14,230.50 173.79,231.03 175.44,231.54 177.09,232.03 178.74,232.51 180.39,232.96 182.04,233.40 183.69,233.82 185.33,234.23 186.98,234.62 188.63,235.00 190.28,235.36 191.93,235.71 193.58,236.05 195.23,236.37 196.88,236.68 198.53,236.98 200.18,237.27 201.83,237.55 203.48,237.81 205.13,238.07 206.78,238.32 208.43,238.56 210.08,238.79 211.73,239.01 213.37,239.22 215.02,239.43 216.67,239.63 " style="stroke-width: 1.07; stroke: #B22222; stroke-linecap: butt;" clip-path="url(#cpNDMuNDl8MjI0LjkyfDI1Ni4xMXw1LjQ4)"></polyline>
<polyline points="51.73,16.87 53.38,25.37 55.03,33.55 56.68,41.42 58.33,49.00 59.98,56.30 61.63,63.33 63.28,70.09 64.93,76.60 66.58,82.87 68.23,88.90 69.88,94.71 71.53,100.31 73.18,105.69 74.83,110.88 76.47,115.87 78.12,120.67 79.77,125.30 81.42,129.75 83.07,134.04 84.72,138.16 86.37,142.14 88.02,145.96 89.67,149.65 91.32,153.19 92.97,156.60 94.62,159.89 96.27,163.05 97.92,166.10 99.57,169.03 101.22,171.85 102.86,174.57 104.51,177.18 106.16,179.70 107.81,182.13 109.46,184.46 111.11,186.71 112.76,188.87 114.41,190.95 116.06,192.96 117.71,194.89 119.36,196.75 121.01,198.54 122.66,200.26 124.31,201.92 125.96,203.51 127.61,205.05 129.26,206.53 130.90,207.95 132.55,209.32 134.20,210.64 135.85,211.91 137.50,213.14 139.15,214.31 140.80,215.45 142.45,216.54 144.10,217.59 145.75,218.60 147.40,219.58 149.05,220.51 150.70,221.42 152.35,222.29 154.00,223.12 155.65,223.93 157.30,224.70 158.94,225.45 160.59,226.17 162.24,226.86 163.89,227.53 165.54,228.17 167.19,228.78 168.84,229.38 170.49,229.95 172.14,230.50 173.79,231.03 175.44,231.54 177.09,232.03 178.74,232.51 180.39,232.96 182.04,233.40 183.69,233.82 185.33,234.23 186.98,234.62 188.63,235.00 190.28,235.36 191.93,235.71 193.58,236.05 195.23,236.37 196.88,236.68 198.53,236.98 200.18,237.27 201.83,237.55 203.48,237.81 205.13,238.07 206.78,238.32 208.43,238.56 210.08,238.79 211.73,239.01 213.37,239.22 215.02,239.43 216.67,239.63 " style="stroke-width: 1.07; stroke: #B22222; stroke-linecap: butt;" clip-path="url(#cpNDMuNDl8MjI0LjkyfDI1Ni4xMXw1LjQ4)"></polyline>
<polyline points="51.73,16.87 53.38,52.69 55.03,82.87 56.68,108.31 58.33,129.75 59.98,147.82 61.63,163.05 63.28,175.89 64.93,186.71 66.58,195.83 68.23,203.51 69.88,209.99 71.53,215.45 73.18,220.05 74.83,223.93 76.47,227.20 78.12,229.95 79.77,232.27 81.42,234.23 83.07,235.88 84.72,237.27 86.37,238.44 88.02,239.43 89.67,240.26 91.32,240.96 92.97,241.55 94.62,242.05 96.27,242.47 97.92,242.82 99.57,243.12 101.22,243.37 102.86,243.59 104.51,243.76 106.16,243.92 107.81,244.04 109.46,244.15 111.11,244.24 112.76,244.32 114.41,244.38 116.06,244.43 117.71,244.48 119.36,244.52 121.01,244.55 122.66,244.58 124.31,244.60 125.96,244.62 127.61,244.64 129.26,244.65 130.90,244.66 132.55,244.67 134.20,244.68 135.85,244.69 137.50,244.69 139.15,244.70 140.80,244.70 142.45,244.70 144.10,244.71 145.75,244.71 147.40,244.71 149.05,244.71 150.70,244.71 152.35,244.72 154.00,244.72 155.65,244.72 157.30,244.72 158.94,244.72 160.59,244.72 162.24,244.72 163.89,244.72 165.54,244.72 167.19,244.72 168.84,244.72 170.49,244.72 172.14,244.72 173.79,244.72 175.44,244.72 177.09,244.72 178.74,244.72 180.39,244.72 182.04,244.72 183.69,244.72 185.33,244.72 186.98,244.72 188.63,244.72 190.28,244.72 191.93,244.72 193.58,244.72 195.23,244.72 196.88,244.72 198.53,244.72 200.18,244.72 201.83,244.72 203.48,244.72 205.13,244.72 206.78,244.72 208.43,244.72 210.08,244.72 211.73,244.72 213.37,244.72 215.02,244.72 216.67,244.72 " style="stroke-width: 1.07; stroke: #666666; stroke-linecap: butt;" clip-path="url(#cpNDMuNDl8MjI0LjkyfDI1Ni4xMXw1LjQ4)"></polyline>
<polyline points="51.73,16.87 53.38,52.69 55.03,82.87 56.68,108.31 58.33,129.75 59.98,147.82 61.63,163.05 63.28,175.89 64.93,186.71 66.58,195.83 68.23,203.51 69.88,209.99 71.53,215.45 73.18,220.05 74.83,223.93 76.47,227.20 78.12,229.95 79.77,232.27 81.42,234.23 83.07,235.88 84.72,237.27 86.37,238.44 88.02,239.43 89.67,240.26 91.32,240.96 92.97,241.55 94.62,242.05 96.27,242.47 97.92,242.82 99.57,243.12 101.22,243.37 102.86,243.59 104.51,243.76 106.16,243.92 107.81,244.04 109.46,244.15 111.11,244.24 112.76,244.32 114.41,244.38 116.06,244.43 117.71,244.48 119.36,244.52 121.01,244.55 122.66,244.58 124.31,244.60 125.96,244.62 127.61,244.64 129.26,244.65 130.90,244.66 132.55,244.67 134.20,244.68 135.85,244.69 137.50,244.69 139.15,244.70 140.80,244.70 142.45,244.70 144.10,244.71 145.75,244.71 147.40,244.71 149.05,244.71 150.70,244.71 152.35,244.72 154.00,244.72 155.65,244.72 157.30,244.72 158.94,244.72 160.59,244.72 162.24,244.72 163.89,244.72 165.54,244.72 167.19,244.72 168.84,244.72 170.49,244.72 172.14,244.72 173.79,244.72 175.44,244.72 177.09,244.72 178.74,244.72 180.39,244.72 182.04,244.72 183.69,244.72 185.33,244.72 186.98,244.72 188.63,244.72 190.28,244.72 191.93,244.72 193.58,244.72 195.23,244.72 196.88,244.72 198.53,244.72 200.18,244.72 201.83,244.72 203.48,244.72 205.13,244.72 206.78,244.72 208.43,244.72 210.08,244.72 211.73,244.72 213.37,244.72 215.02,244.72 216.67,244.72 " style="stroke-width: 1.07; stroke: #666666; stroke-linecap: butt;" clip-path="url(#cpNDMuNDl8MjI0LjkyfDI1Ni4xMXw1LjQ4)"></polyline>
<defs> <clipPath id="cpMC4wMHwyMzAuNDB8Mjg4LjAwfDAuMDA="> <rect x="0.00" y="0.00" width="230.40" height="288.00"></rect> </clipPath>
</defs>
<g clip-path="url(#cpMC4wMHwyMzAuNDB8Mjg4LjAwfDAuMDA=)"><text x="18.52" y="248.00" style="font-size: 8.80px; fill: #4D4D4D; font-family: monospace;" textLength="20.04px" lengthAdjust="spacingAndGlyphs">0.00</text></g>
<g clip-path="url(#cpMC4wMHwyMzAuNDB8Mjg4LjAwfDAuMDA=)"><text x="18.52" y="191.04" style="font-size: 8.80px; fill: #4D4D4D; font-family: monospace;" textLength="20.04px" lengthAdjust="spacingAndGlyphs">0.25</text></g>
<g clip-path="url(#cpMC4wMHwyMzAuNDB8Mjg4LjAwfDAuMDA=)"><text x="18.52" y="134.08" style="font-size: 8.80px; fill: #4D4D4D; font-family: monospace;" textLength="20.04px" lengthAdjust="spacingAndGlyphs">0.50</text></g>
<g clip-path="url(#cpMC4wMHwyMzAuNDB8Mjg4LjAwfDAuMDA=)"><text x="18.52" y="77.12" style="font-size: 8.80px; fill: #4D4D4D; font-family: monospace;" textLength="20.04px" lengthAdjust="spacingAndGlyphs">0.75</text></g>
<g clip-path="url(#cpMC4wMHwyMzAuNDB8Mjg4LjAwfDAuMDA=)"><text x="18.52" y="20.15" style="font-size: 8.80px; fill: #4D4D4D; font-family: monospace;" textLength="20.04px" lengthAdjust="spacingAndGlyphs">1.00</text></g>
<g clip-path="url(#cpMC4wMHwyMzAuNDB8Mjg4LjAwfDAuMDA=)"><text x="83.59" y="267.61" style="font-size: 8.80px; fill: #4D4D4D; font-family: monospace;" textLength="5.73px" lengthAdjust="spacingAndGlyphs">5</text></g>
<g clip-path="url(#cpMC4wMHwyMzAuNDB8Mjg4LjAwfDAuMDA=)"><text x="124.14" y="267.61" style="font-size: 8.80px; fill: #4D4D4D; font-family: monospace;" textLength="11.45px" lengthAdjust="spacingAndGlyphs">10</text></g>
<g clip-path="url(#cpMC4wMHwyMzAuNDB8Mjg4LjAwfDAuMDA=)"><text x="167.54" y="267.61" style="font-size: 8.80px; fill: #4D4D4D; font-family: monospace;" textLength="11.45px" lengthAdjust="spacingAndGlyphs">15</text></g>
<g clip-path="url(#cpMC4wMHwyMzAuNDB8Mjg4LjAwfDAuMDA=)"><text x="210.95" y="267.61" style="font-size: 8.80px; fill: #4D4D4D; font-family: monospace;" textLength="11.45px" lengthAdjust="spacingAndGlyphs">20</text></g>
<g clip-path="url(#cpMC4wMHwyMzAuNDB8Mjg4LjAwfDAuMDA=)"><text x="68.52" y="280.24" style="font-size: 11.00px; font-family: monospace;" textLength="131.38px" lengthAdjust="spacingAndGlyphs">Number of Components</text></g>
<g clip-path="url(#cpMC4wMHwyMzAuNDB8Mjg4LjAwfDAuMDA=)"><text transform="translate(13.50,164.05) rotate(-90)" style="font-size: 11.00px; font-family: monospace;" textLength="66.50px" lengthAdjust="spacingAndGlyphs">Eigenvalues</text></g>
<g clip-path="url(#cpMC4wMHwyMzAuNDB8Mjg4LjAwfDAuMDA=)"><text x="98.10" y="50.76" style="font-size: 11.00px; font-family: monospace;" textLength="72.71px" lengthAdjust="spacingAndGlyphs">Decay Factor</text></g>
<line x1="99.83" y1="66.02" x2="113.65" y2="66.02" style="stroke-width: 1.07; stroke: #B22222; stroke-linecap: butt;" clip-path="url(#cpMC4wMHwyMzAuNDB8Mjg4LjAwfDAuMDA=)"></line>
<line x1="99.83" y1="66.02" x2="113.65" y2="66.02" style="stroke-width: 1.07; stroke: #B22222; stroke-linecap: butt;" clip-path="url(#cpMC4wMHwyMzAuNDB8Mjg4LjAwfDAuMDA=)"></line>
<line x1="99.83" y1="83.30" x2="113.65" y2="83.30" style="stroke-width: 1.07; stroke: #666666; stroke-linecap: butt;" clip-path="url(#cpMC4wMHwyMzAuNDB8Mjg4LjAwfDAuMDA=)"></line>
<line x1="99.83" y1="83.30" x2="113.65" y2="83.30" style="stroke-width: 1.07; stroke: #666666; stroke-linecap: butt;" clip-path="url(#cpMC4wMHwyMzAuNDB8Mjg4LjAwfDAuMDA=)"></line>
<g clip-path="url(#cpMC4wMHwyMzAuNDB8Mjg4LjAwfDAuMDA=)"><text x="120.86" y="69.30" style="font-size: 8.80px; font-family: monospace;" textLength="54.48px" lengthAdjust="spacingAndGlyphs">gamma: 0.2</text></g>
<g clip-path="url(#cpMC4wMHwyMzAuNDB8Mjg4LjAwfDAuMDA=)"><text x="120.86" y="86.58" style="font-size: 8.80px; font-family: monospace;" textLength="54.48px" lengthAdjust="spacingAndGlyphs">gamma: 0.9</text></g>
</svg>
