<svg id="Layer_1" data-name="Layer 1" xmlns="http://www.w3.org/2000/svg" viewBox="0 0 618 570"><defs><style>.cls-1{fill:#fff;}.cls-2{fill:#575757;}.cls-3{fill:#c1c0c0;}.cls-4{fill:#d8685d;}.cls-5{fill:#f18374;}.cls-6{fill:#416575;}.cls-7{fill:#86c2c3;}.cls-8{fill:#cfdae1;}.cls-9{fill:#131212;}.cls-10{fill:#e5e4e3;}.cls-11{fill:#5a7a94;}.cls-12{fill:#0792d1;}.cls-13{fill:#6d6e71;}.cls-14{fill:#0094ab;}.cls-15{fill:#fddf90;}.cls-16,.cls-17{fill:none;stroke-linecap:round;stroke-linejoin:round;stroke-width:5.05px;}.cls-16{stroke:#0094ab;}.cls-17{stroke:#9b8579;}.cls-18{fill:#9b8579;}.cls-19{fill:#8a752f;}.cls-20{fill:#fbce3e;}.cls-21{fill:#fae7a5;}.cls-22{fill:#f2f2f0;}</style></defs><title>Artboard 2</title><rect class="cls-1" x="188.45" y="17.26" width="238.65" height="232.56"/><path class="cls-2" d="M341.09,113l-14.22,4V128.6q0,22.29,0,44.59c0,3.28-.89,4.2-4.11,4.21h-101c-2.66,0-3.68-1.06-3.68-3.81q0-56.9,0-113.79c0-3,1-4,4.12-4,21.8,0,43.6-.07,65.4.09,3.32,0,5.57-.76,7.76-3.39a34.7,34.7,0,0,1,21.82-12.15c13.88-2.17,25.95,1.84,35.19,12.46,11,12.7,12.39,27.08,5.8,42.71,1.41,1.35,3,2.89,4.59,4.37a2,2,0,0,0,1.32.68c2.33-.37,3.7,1.11,5.16,2.47q17.82,16.57,35.64,33.14a12.75,12.75,0,0,1,.48,18.5c-2.42,2.49-4.79,5-8.36,5.85a12.85,12.85,0,0,1-12.31-3.39q-17.54-16.31-35.05-32.64c-.83-.77-1.7-1.5-2.5-2.29-.36-.37-.88-.89-.85-1.29C346.63,116.67,342.78,115.33,341.09,113Zm-20.69,3.58c-13-1.58-23.18-7.71-29.82-19s-7-23.15-2-35.24h-64V170.9H320.4Zm3.3-70.37A32,32,0,1,0,355.63,79C356,60.59,341.65,46.45,323.7,46.19Zm23.44,63.6-.65-.53c.94.94,1.9,1.87,2.82,2.82,1.6,1.64,3.62,3,3.26,5.81-.06.46.64,1.11,1.11,1.54,4.61,4.31,9.24,8.59,13.86,12.89,6.95,6.47,13.84,13,20.89,19.39a11.64,11.64,0,0,0,5,2.52c2.71.65,4.56-1.19,6.34-3,3.85-3.93,4-7.22,0-10.94-11.47-10.8-23-21.49-34.6-32.2-.51-.47-1.26-1.1-1.81-1-2.43.33-3.84-1.12-5.25-2.66-1.08-1.18-2.18-2.34-3.26-3.5l.46.82Z"/><path class="cls-3" d="M374.87,180.6a46.25,46.25,0,0,1,6.15.07,5.15,5.15,0,0,1,3.05,1.71c.88,1.11.51,2.49-.46,3.65-5.19,6.22-10.35,12.48-15.55,18.7-1.72,2.06-3.85,2.06-5.58,0-5.15-6.17-10.26-12.38-15.42-18.54a3.29,3.29,0,0,1-.65-3.85,3.2,3.2,0,0,1,3.31-1.74c1.92.06,3.83,0,6,0,0-3.07.05-6,0-8.89-.14-7,0-7.28,7.21-7.11,2.53.06,5.06,0,7.59,0,3.56,0,4.4.82,4.4,4.3Zm-18.41,6.78,8.81,10.55,9-10.81c-.62-.07-.87-.11-1.11-.12-4.13-.12-4.72-.72-4.71-4.79,0-3.7,0-7.4,0-11.07h-6.41v9.91c0,5.49,0,5.49-5.34,6C356.69,187.07,356.66,187.15,356.46,187.38Z"/><path class="cls-4" d="M390.88,231.8c-2.07,0-4.13,0-6.19,0-2.22,0-3.37-1.12-3.39-3.3q-.07-6.28,0-12.58c0-2.15,1.21-3.29,3.41-3.3q6.18,0,12.38,0c2.3,0,3.38,1.15,3.39,3.5q0,6.09,0,12.18c0,2.43-1.1,3.47-3.59,3.49C394.87,231.81,392.87,231.8,390.88,231.8ZM394,219.13h-6.22v6.11H394Z"/><path class="cls-4" d="M365.23,231.8c-2.07,0-4.13,0-6.19,0-2.21,0-3.33-1.15-3.35-3.34,0-4.2,0-8.39,0-12.58a2.94,2.94,0,0,1,3.23-3.24q6.39-.07,12.78,0a2.9,2.9,0,0,1,3.14,3.13q.07,6.39,0,12.78a3,3,0,0,1-3.23,3.24C369.49,231.84,367.36,231.8,365.23,231.8Zm-3.05-12.71v6.2h6.16v-6.2Z"/><path class="cls-5" d="M339.47,231.8c-1.93,0-3.86,0-5.79,0-2.48,0-3.57-1.07-3.59-3.49q0-6.09,0-12.18c0-2.42,1.12-3.49,3.59-3.51q6,0,12,0c2.53,0,3.6,1.12,3.62,3.7,0,3.93,0,7.86,0,11.78,0,2.67-1.08,3.68-3.8,3.71h-6Zm-2.89-12.7v6.18h6.15V219.1Z"/><path class="cls-4" d="M314.07,212.61c2,0,4,0,6,0,2.48,0,3.58,1.07,3.6,3.49q.06,6.09,0,12.18c0,2.42-1.15,3.49-3.61,3.51q-6,0-12,0c-2.47,0-3.57-1.07-3.59-3.5q-.06-6.09,0-12.18c0-2.41,1.13-3.46,3.6-3.5h6Zm3.13,6.49H311v6.17h6.22Z"/><path class="cls-5" d="M317.27,196.36c0-2,0-4,0-6a3,3,0,0,1,3.34-3.36q6.19,0,12.38,0c2.34,0,3.44,1.11,3.46,3.44q0,6.18,0,12.38a3,3,0,0,1-3.33,3.35q-6.19,0-12.38,0c-2.33,0-3.42-1.12-3.46-3.44,0-2.13,0-4.26,0-6.39ZM330,199.71v-6.15h-6.19v6.15Z"/><path class="cls-4" d="M310.87,196.61c0,2.07,0,4.13,0,6.19-.05,2.22-1.13,3.36-3.31,3.38-4.2,0-8.39,0-12.59,0a3,3,0,0,1-3.28-3.21q-.06-6.28,0-12.58c0-2.22,1.13-3.36,3.31-3.38q6.28-.06,12.59,0c2.16,0,3.24,1.17,3.27,3.4C310.89,192.48,310.87,194.55,310.87,196.61Zm-6.47-3.07h-6.16v6.16h6.16Z"/><path class="cls-5" d="M266.08,196.6c0-2.06,0-4.13,0-6.19,0-2.21,1.12-3.36,3.29-3.39q6.28-.06,12.58,0c2.18,0,3.27,1.17,3.29,3.39q.06,6.19,0,12.38c0,2.29-1.16,3.39-3.49,3.4-4.06,0-8.12,0-12.18,0-2.42,0-3.47-1.12-3.5-3.6C266.06,200.6,266.08,198.6,266.08,196.6Zm12.7,3.13v-6.22H272.6v6.22Z"/><path class="cls-6" d="M288.46,231.8a9.6,9.6,0,1,1,9.61-9.59A9.5,9.5,0,0,1,288.46,231.8Zm3.21-9.68a3.3,3.3,0,0,0-3.22-3.12,3.36,3.36,0,0,0-3.18,3.39,3.31,3.31,0,0,0,3.32,3A3.45,3.45,0,0,0,291.67,222.12Z"/><path class="cls-7" d="M246.86,222.22a9.49,9.49,0,0,1-9.61,9.58,9.6,9.6,0,1,1,9.61-9.58Zm-6.39.08a3.21,3.21,0,1,0-3.26,3.1A3.4,3.4,0,0,0,240.47,222.3Z"/><path class="cls-6" d="M250.2,187a9.6,9.6,0,1,1-9.73,9.67A9.52,9.52,0,0,1,250.2,187Zm-.15,12.79a3.46,3.46,0,0,0,3.22-3.16,3.29,3.29,0,0,0-3.3-3.24,3.33,3.33,0,0,0-3.1,3.25A3.29,3.29,0,0,0,250.05,199.8Z"/><path class="cls-7" d="M272.47,222.13a9.6,9.6,0,1,1-9.86-9.52A9.58,9.58,0,0,1,272.47,222.13Zm-9.53,3.28a3.2,3.2,0,1,0-3.27-3.08A3.3,3.3,0,0,0,262.94,225.41Z"/><path class="cls-5" d="M291.68,154.8c0-2,0-4,0-6,0-2.23,1.11-3.37,3.28-3.39q6.28-.06,12.58,0c2.11,0,3.27,1.13,3.3,3.18q.07,6.41,0,12.79a3,3,0,0,1-3.29,3.2c-4.19,0-8.39,0-12.58,0-2.18,0-3.26-1.16-3.3-3.39S291.68,156.93,291.68,154.8Zm6.56-3v6.23h6.09v-6.23Z"/><path class="cls-5" d="M266.25,68.6c1.93,0,3.87,0,5.8,0,2.48,0,3.58,1.06,3.61,3.48q.06,6.19,0,12.39c0,2.16-1.18,3.29-3.39,3.31q-6.18.06-12.38,0c-2.31,0-3.39-1.15-3.41-3.48q0-6.09,0-12.19c0-2.44,1.1-3.48,3.58-3.5C262.13,68.59,264.19,68.6,266.25,68.6Zm2.93,12.73V75.1H263v6.23Z"/><path class="cls-5" d="M259.66,103.82c0,2.06,0,4.12,0,6.19s-1.12,3.35-3.3,3.37q-6.29.06-12.58,0a3,3,0,0,1-3.28-3.21q-.08-6.39,0-12.78a3,3,0,0,1,3.31-3.19q6.19,0,12.38,0c2.43,0,3.46,1.13,3.49,3.61C259.68,99.82,259.66,101.82,259.66,103.82ZM247,100.67v6.23h6.14v-6.23Z"/><path class="cls-4" d="M256.46,129.6c0-2.13,0-4.27,0-6.39s1.15-3.37,3.31-3.39q6.3-.06,12.59,0c2.17,0,3.26,1.16,3.28,3.39q.06,6.2,0,12.38c0,2.29-1.17,3.4-3.49,3.41q-6,0-12,0c-2.68,0-3.66-1.05-3.69-3.8,0-1.87,0-3.73,0-5.59Zm6.56-3.34v6.24h6.13v-6.24Z"/><path class="cls-4" d="M294.88,135.79c-2,0-4,0-6,0-2.47,0-3.57-1.07-3.6-3.5q0-6.09,0-12.18c0-2.31,1.14-3.49,3.41-3.51q6.19,0,12.38,0c2.31,0,3.38,1.15,3.4,3.49,0,4.06,0,8.12,0,12.19,0,2.44-1.09,3.46-3.59,3.49C298.87,135.81,296.87,135.79,294.88,135.79Zm3.06-6.48v-6.17h-6.18v6.17Z"/><path class="cls-6" d="M240.44,139a9.6,9.6,0,1,1,9.63-9.76A9.6,9.6,0,0,1,240.44,139Zm3.23-9.68a3.2,3.2,0,1,0-3.08,3.29A3.44,3.44,0,0,0,243.67,129.31Z"/><path class="cls-7" d="M230.88,154.93a9.6,9.6,0,1,1,9.72,9.68A9.54,9.54,0,0,1,230.88,154.93Zm12.78,0a3.2,3.2,0,1,0-3.1,3.25A3.4,3.4,0,0,0,243.66,155Z"/><path class="cls-6" d="M272.48,164.59a9.59,9.59,0,1,1,9.58-9.4A9.53,9.53,0,0,1,272.48,164.59Zm0-6.39a3.43,3.43,0,0,0,3.14-3.22,3.36,3.36,0,0,0-3.18-3.18,3.28,3.28,0,0,0-3.22,3.32A3.33,3.33,0,0,0,272.53,158.2Z"/><path class="cls-7" d="M240.39,87.79a9.6,9.6,0,1,1,9.67-9.52A9.52,9.52,0,0,1,240.39,87.79Zm.08-6.39a3.44,3.44,0,0,0,3.2-3.16,3.2,3.2,0,1,0-6.4,0A3.3,3.3,0,0,0,240.47,81.4Z"/><path class="cls-7" d="M285.26,103.78a9.59,9.59,0,1,1-9.6-9.57A9.53,9.53,0,0,1,285.26,103.78Zm-6.4,0a3.2,3.2,0,1,0-3.12,3.24A3.39,3.39,0,0,0,278.86,103.75Z"/><path class="cls-5" d="M339.8,68.6c2.06,0,4.13,0,6.19,0s3.24,1.14,3.26,3.22q.08,6.39,0,12.78a2.9,2.9,0,0,1-3.11,3.16c-4.32.06-8.65.07-13,0a2.91,2.91,0,0,1-3.07-3.21c0-4.25-.06-8.52,0-12.78,0-2,1.2-3.12,3.31-3.17S337.67,68.6,339.8,68.6Zm-3.24,12.69h6.19V75.14h-6.19Z"/><path class="cls-4" d="M314.27,55.8c2,0,4,0,6,0,2.29,0,3.4,1.18,3.41,3.49q0,6,0,12c0,2.69-1.06,3.69-3.79,3.7-4,0-8,0-12,0-2.19,0-3.36-1.14-3.39-3.3q-.06-6.28,0-12.58c0-2.15,1.18-3.26,3.39-3.3S312.14,55.8,314.27,55.8Zm2.91,12.72V62.3H311v6.22Z"/><path class="cls-6" d="M304.48,90.92a9.6,9.6,0,1,1,9.32,9.67A9.57,9.57,0,0,1,304.48,90.92ZM314,87.79a3.21,3.21,0,1,0,.24,6.41,3.48,3.48,0,0,0,3-3.33A3.36,3.36,0,0,0,314,87.79Z"/><path class="cls-2" d="M248.51,66.57q0,11.9,0,23.8a2.72,2.72,0,0,1-3.05,3.06h-35.9c-2.17,0-3.12-1-3.12-3.14V43c0-2.23.94-3.17,3.17-3.17s4.22,0,6.33,0c.42,0,.57-.08.6-.55a4.16,4.16,0,0,1,4.13-4c4.54,0,9.07-.06,13.61,0a4.15,4.15,0,0,1,4.12,4c0,.5.22.54.62.54,2.21,0,4.43,0,6.64,0a2.62,2.62,0,0,1,2.84,2.86Q248.53,54.62,248.51,66.57Zm-40.27,0V90.32c0,1.1.18,1.28,1.29,1.28h35.9c1.11,0,1.3-.19,1.3-1.27q0-22.86,0-45.72c0-.66,0-1.32,0-2s-.35-1-1.06-1c-2.19,0-4.38,0-6.57,0-.46,0-.61.12-.67.6A4.18,4.18,0,0,1,234.31,46q-6.84,0-13.69,0a4.15,4.15,0,0,1-4-3.72c-.05-.59-.26-.68-.76-.67-2,0-4.06,0-6.09,0-1.35,0-1.49.13-1.49,1.5Zm19.32-29.48c-2.14,0-4.27,0-6.41,0-1.91.06-2.92,1.05-2.84,2.79,0,.58,0,1.16,0,1.74a2.46,2.46,0,0,0,2.46,2.55c4.46,0,8.91,0,13.36,0a2.42,2.42,0,0,0,2.5-2.56c0-.6,0-1.21,0-1.81A2.48,2.48,0,0,0,234,37.11Z"/><path class="cls-8" d="M208.24,66.59V43.1c0-1.37.14-1.5,1.49-1.5,2,0,4.06,0,6.09,0,.5,0,.71.08.76.67a4.15,4.15,0,0,0,4,3.72q6.85,0,13.69,0a4.18,4.18,0,0,0,4.08-3.78c.06-.48.21-.61.67-.6,2.19,0,4.38,0,6.57,0,.71,0,1.08.28,1.06,1s0,1.31,0,2q0,22.86,0,45.72c0,1.08-.19,1.27-1.3,1.27h-35.9c-1.11,0-1.29-.18-1.29-1.28Zm7.22-4h-3a.91.91,0,0,0-1,1q0,3,0,6c0,.61.29,1,.94,1.05q3.07,0,6.16,0a.89.89,0,0,0,1-.93c0-2.06,0-4.11,0-6.17a.87.87,0,0,0-1-.95Zm.08,12.67h-2.85c-1,0-1.29.27-1.29,1.32v4.74c0,2,0,2,2,2,1.58,0,3.16,0,4.74,0,.63,0,1.26-.1,1.27-.94q0-3.07,0-6.15a.87.87,0,0,0-1-1Zm-4.06-21.35h0c0,1,0,2,0,3,0,.67.32,1.06,1,1.07,2,0,4,0,6,0a.92.92,0,0,0,1-1q0-3,0-6a.93.93,0,0,0-1-1h-6c-.59,0-.95.25-.94.9C211.49,51.87,211.48,52.89,211.48,53.92ZM233.1,65.74h-9.25c-.81,0-1.26.32-1.21.89.08.74.58.89,1.24.88,2.4,0,4.8,0,7.2,0h11.3c.4,0,.79,0,1-.42.39-.71-.06-1.35-1-1.36ZM233,80.18h0c3.13,0,6.27,0,9.41,0,.69,0,1.1-.29,1.09-.94s-.46-.85-1.08-.85H223.69a.92.92,0,0,0-.67.16.84.84,0,0,0-.36,1,.92.92,0,0,0,1,.66Zm.07-27.1h-9.25c-.8,0-1.24.32-1.2.9.06.77.59.88,1.23.88h18.41c.75,0,1.32-.43,1.26-1-.08-.72-.59-.82-1.21-.82C239.25,53.09,236.17,53.08,233.09,53.08Z"/><path class="cls-3" d="M227.56,37.11H234a2.48,2.48,0,0,1,2.69,2.72c0,.6,0,1.21,0,1.81a2.42,2.42,0,0,1-2.5,2.56c-4.45,0-8.9,0-13.36,0a2.46,2.46,0,0,1-2.46-2.55c0-.58,0-1.16,0-1.74-.08-1.74.93-2.73,2.84-2.79C223.29,37.06,225.42,37.11,227.56,37.11Z"/><path class="cls-2" d="M215.46,62.6h3a.87.87,0,0,1,1,.95c0,2.06,0,4.11,0,6.17a.89.89,0,0,1-1,.93q-3.09,0-6.16,0c-.65,0-.93-.44-.94-1.05q0-3,0-6a.91.91,0,0,1,1-1Zm2.15,4h.06c0-.56,0-1.11,0-1.66s-.1-.57-.53-.55c-1.14,0-2.27,0-3.4,0-.34,0-.54,0-.53.46,0,1.19,0,2.37,0,3.56,0,.35.13.46.46.45.58,0,1.16,0,1.74,0,.73,0,1.74.32,2.11-.12S217.61,67.31,217.61,66.58Z"/><path class="cls-2" d="M215.54,75.27h2.92a.87.87,0,0,1,1,1q0,3.08,0,6.15c0,.84-.64.93-1.27.94-1.58,0-3.16,0-4.74,0-2,0-2,0-2-2V76.58c0-1,.26-1.31,1.29-1.32h2.85Zm2.13,4.18c0-.74,0-1.35,0-2,0-.33-.09-.48-.44-.47-1.19,0-2.37,0-3.56,0-.35,0-.46.13-.45.46,0,.61,0,1.21,0,1.82s-.25,1.64.11,2.06,1.38.14,2.11.16,1.64.25,2.06-.11S217.59,80,217.67,79.45Z"/><path class="cls-2" d="M211.48,53.92c0-1,0-2.05,0-3.08,0-.65.35-.89.94-.9h6a.93.93,0,0,1,1,1q0,3,0,6a.92.92,0,0,1-1,1c-2,0-4,0-6,0-.67,0-1-.4-1-1.07,0-1,0-2,0-3Zm6.22,0c-.09-.72.3-1.66-.17-2.11s-1.36-.13-2.06-.12-1.69-.32-2.11.15-.12,1.35-.12,2.06-.24,1.63.11,2.06,1.37.15,2.1.17,1.64.26,2.06-.1S217.6,54.68,217.7,54Z"/><path class="cls-4" d="M233.1,65.74h9.32c.93,0,1.38.65,1,1.36-.24.43-.63.42-1,.42h-11.3c-2.4,0-4.8,0-7.2,0-.66,0-1.16-.14-1.24-.88,0-.57.4-.89,1.21-.89Z"/><path class="cls-5" d="M233,80.18h-9.33a.92.92,0,0,1-1-.66.84.84,0,0,1,.36-1,.92.92,0,0,1,.67-.16h18.75c.62,0,1.08.22,1.08.85s-.4.94-1.09.94c-3.14,0-6.28,0-9.41,0Z"/><path class="cls-7" d="M233.09,53.08c3.08,0,6.16,0,9.24,0,.62,0,1.13.1,1.21.82.06.53-.51,1-1.26,1H223.87c-.64,0-1.17-.11-1.23-.88,0-.58.4-.9,1.2-.9Z"/><path class="cls-4" d="M217.61,66.58c0,.73.28,1.7-.08,2.13s-1.38.1-2.11.12c-.58,0-1.16,0-1.74,0-.33,0-.47-.1-.46-.45,0-1.19,0-2.37,0-3.56,0-.41.19-.46.53-.46,1.13,0,2.26,0,3.4,0,.43,0,.54.15.53.55s0,1.1,0,1.66Z"/><path class="cls-5" d="M217.67,79.45c-.08.59.33,1.56-.16,2s-1.36.14-2.06.11-1.7.34-2.11-.16-.11-1.35-.11-2.06,0-1.21,0-1.82c0-.33.1-.46.45-.46,1.19,0,2.37,0,3.56,0,.35,0,.45.14.44.47C217.66,78.1,217.67,78.71,217.67,79.45Z"/><path class="cls-7" d="M217.7,54c-.1.72.31,1.69-.19,2.1s-1.36.12-2.06.1-1.69.32-2.1-.17-.12-1.36-.11-2.06-.24-1.66.12-2.06,1.38-.14,2.11-.15,1.63-.3,2.06.12S217.61,53.23,217.7,54Z"/><rect class="cls-1" x="422.69" y="286.03" width="166.18" height="165.95"/><g id="_26VfZE.tif" data-name="26VfZE.tif"><rect class="cls-1" x="432.69" y="296.03" width="146.18" height="145.95"/></g><g id="_26VfZE.tif-2" data-name="26VfZE.tif"><path class="cls-9" d="M440.21,402.54a7.46,7.46,0,0,0,0,2.58c0,1-.1,2.06-.1,3.08,0,.82,0,1.63,0,2.45,0,.44-.16,1.22.29,1.49s1.67,0,2.2,0h3c1.79,0,3.59,0,5.39,0,1.28,0,2.58.74,2.09,2.21s-1.93,1.45-3.2,1.38c-1.9-.1-3.79,0-5.69-.05-.79,0-1.56.05-2.34,0-.54,0-1.29-.17-1.64.36s-.18,1.68-.15,2.33c.05,1,.12,2,.09,3-.05,1.86-.11,3.71-.06,5.58s0,3.6-.06,5.39a4.51,4.51,0,0,0,0,1.68c.28.74,1,.43,1.61.41,2-.07,4,.12,6,.09s3.86-.09,5.79-.07c.84,0,1.68,0,2.51.05s1.11-.11,1.19-.94a22.11,22.11,0,0,0-.09-2.44c0-1,0-2.08,0-3.12a28.49,28.49,0,0,1,.07-5.06,1.79,1.79,0,0,1,2.93-1.1c1.13,1,.66,3.24.66,4.55,0,1.89-.13,3.78-.08,5.66a3.83,3.83,0,0,0,.32,2.07c.5.66,1.5.43,2.21.39,1.89-.12,3.8,0,5.7,0s4,0,6,0a5.66,5.66,0,0,0,2,0c.57-.28.24-1.38.28-1.9.11-1.88,0-3.79,0-5.68,0-.84,0-1.68,0-2.52a3.88,3.88,0,0,1,.39-2.26,1.71,1.71,0,0,1,3,.48,6.42,6.42,0,0,1,.14,2.1c0,1,0,2,0,3,0,1.85.07,3.72,0,5.56,0,.64-.06,1.11.66,1.24a15.73,15.73,0,0,0,2.83,0c3.88,0,7.77,0,11.65,0,.49,0,1.07.13,1.35-.36a6.56,6.56,0,0,0,0-2.5c0-1.78-.06-3.57-.08-5.36a13.23,13.23,0,0,1,.1-3.56,1.85,1.85,0,0,1,2.82-1c1.07.81.62,3.16.64,4.28,0,1.91,0,3.82,0,5.74,0,.64-.23,1.81.12,2.38s1,.44,1.56.39c1.75-.15,3.55,0,5.3,0,2,0,4,0,6,0,.87,0,1.77,0,2.64-.06.58,0,.78-.1.87-.71a41.75,41.75,0,0,0,0-5.81c0-.92,0-1.83,0-2.74a9.55,9.55,0,0,1,.1-2.62,1.66,1.66,0,0,1,2.81-.65c1.07,1,.67,3,.61,4.24-.09,2,.05,4,0,6,0,.54-.25,1.46,0,2s1,.4,1.51.4c3.77.06,7.58.07,11.35,0,.87,0,1.76,0,2.62,0s.95-.45,1-1.13c.07-1.47-.1-3-.1-4.48s0-3.1-.08-4.65c0-1.13.11-2.46,1.4-2.82,1.48-.41,2.17,1.11,2.25,2.33.12,1.92.05,3.85.05,5.77,0,.9,0,1.81,0,2.71a4.3,4.3,0,0,0,0,1.75c.27.62.84.55,1.43.52.94,0,1.88,0,2.82,0,2,0,3.91-.05,5.87,0,.84,0,1.67,0,2.51,0s1.88.11,2.77,0c1.34-.14,1-1.5,1-2.49-.09-2,0-4,0-6a13.41,13.41,0,0,1,.06-3.35,1.54,1.54,0,0,1,2.51-1c1.24,1,.81,3.16.81,4.55,0,2,0,3.92-.05,5.89,0,.51-.25,1.77.17,2.17s1.39.11,1.83.1c1.92-.05,3.85,0,5.77,0,1.14,0,8.42-.42,6.08,2.69-.72,1-2.23.78-3.27.72-1.73-.09-3.47,0-5.2,0H468.45c-8.11,0-16.23,0-24.35,0-1.87,0-3.78.14-5.65,0s-1.73-1.84-1.69-3.32c.13-3.8.09-7.62.09-11.43V307.59c0-1.81-.15-3.69,0-5.5.09-1.22,1-2.36,2.36-1.78s1.07,2.65,1,3.82c-.09,2,0,3.95,0,5.93,0,.72-.09,1.48,0,2.18s.29.74.92.77c1.94.1,4,0,5.9-.05,1.6,0,3.9-.46,5.39.25a1.64,1.64,0,0,1,0,2.88c-1.36.69-3.53.29-5,.27-1.86,0-3.75-.14-5.61,0-.53,0-1.18,0-1.49.52s0,1.62-.06,2.31c-.09,3.73,0,7.47-.09,11.2,0,1.18-.18,2.36,1.32,2.35,1.91,0,3.82-.12,5.74-.13,1,0,2,0,2.94,0a5.39,5.39,0,0,1,2.26.29,1.78,1.78,0,0,1,.42,2.66c-.7.67-1.92.56-2.81.57-1.72,0-3.49.1-5.2,0-.94-.05-1.85.06-2.78.08-.62,0-1.52-.38-1.85.36a3.75,3.75,0,0,0,0,1.73,27.66,27.66,0,0,1,0,3c-.06,1.94,0,3.87,0,5.81,0,1,0,1.94,0,2.9,0,.59-.3,1.73.08,2.26s1.2.36,1.72.36c1,0,2,0,3,0,1.89,0,3.78,0,5.67,0,1.19,0,2.65.36,2.67,1.87s-1.78,1.73-3,1.72c-2,0-3.93.08-5.88,0-.91,0-1.81,0-2.72,0-.51,0-1.15-.08-1.47.41a4.24,4.24,0,0,0-.14,2c0,1,0,2,0,2.95,0,2,.08,4,.05,6l0,2.67c0,.45-.21,1.25.08,1.65s1.26.21,1.78.22c1,0,2,0,3,0,1.92,0,3.84-.06,5.76,0,1.24,0,2.69.52,2.44,2.06s-2,1.42-3.26,1.46c-1.86.05-3.72,0-5.58,0-.82,0-1.64,0-2.46,0-.48,0-1.35-.25-1.69.22s-.1,1.24-.09,1.7c0,.95,0,1.9,0,2.85,0,1.95,0,3.9,0,5.85,0,1.58-.14,3.25,0,4.83,0,.52.18.92.74,1a15.09,15.09,0,0,0,2.68-.06c2,0,3.92,0,5.88,0,1.42,0,3.58-.3,3.85,1.61.2,1.37-1,1.91-2.17,2a33.64,33.64,0,0,1-3.62,0c-1.71,0-3.43.06-5.15-.05-1.08-.06-2.13-.15-2.17,1.21A56.05,56.05,0,0,0,440.21,402.54Z"/><path class="cls-9" d="M507.62,367.35a17.66,17.66,0,0,1-3,.49,14.39,14.39,0,0,1-3.12-.56,7.72,7.72,0,0,1-2.33-1.12c-.4-.26-.91-.65-1.43-.53s-.82.61-1.12.94c-.69.79-1.5,1.46-2.25,2.2-1.48,1.45-2.95,2.93-4.41,4.4-2.89,2.92-5.76,5.88-8.67,8.79-1,1-3,2-2,3.68a5.92,5.92,0,0,1,.87,2.42,11.26,11.26,0,0,1,.26,2.94,10.37,10.37,0,0,1-6.15,8.14,10,10,0,0,1-6.3.34,10.31,10.31,0,0,1-4.19-2.58,9.39,9.39,0,0,1-2.6-4.77,10.72,10.72,0,0,1,.29-5.36,9.72,9.72,0,0,1,8.72-6.44,8.35,8.35,0,0,1,2.64.24c.43.12.87.22,1.29.38s.92.54,1.42.72a1.42,1.42,0,0,0,1.69-.51c.71-.79,1.42-1.5,2.19-2.23,1.5-1.44,2.94-2.94,4.41-4.4s3-2.92,4.4-4.42,2.91-3,4.4-4.5c.63-.64,1.26-1.21,1.94-1.79a3,3,0,0,0,1.14-1.65c.18-.87-.29-1.45-.57-2.22a7.59,7.59,0,0,1-.23-2.6,10.06,10.06,0,0,1,1.89-5.38,10.66,10.66,0,0,1,4.48-3.34,11.22,11.22,0,0,1,6-.19,9.32,9.32,0,0,1,5,3.41,9,9,0,0,1,2,5.68,8.75,8.75,0,0,1-.32,3.06c-.28.83-1.1,1.89-.47,2.63s1.46,1.38,2.16,2.06,1.5,1.56,2.26,2.35c2.92,3,6,5.93,9,8.92,1.48,1.48,2.94,3,4.4,4.48.63.65.73.79,1.56.44a12.76,12.76,0,0,1,2.86-.93,9.87,9.87,0,0,1,5.78.66c1.15.5,1.91,1.57,3.09.57,1.41-1.2,2.62-2.71,3.92-4,1.45-1.48,2.92-2.85,4.36-4.33s2.74-2.92,4.14-4.35,3.06-2.93,4.49-4.49,2.77-2.93,4.16-4.38h-3.36c-1.09,0-2.16.16-3.22.16-1.39,0-5.24.7-4.84-1.75.32-2,2.82-1.57,4.29-1.55,2.09,0,4.16-.27,6.26-.29l3.15,0c.83,0,2.33-.34,3,.15a2.3,2.3,0,0,1,.67,2.09l-.2,3.57-.39,6.94c-.06,1.22.34,4.46-1.48,4.69-2.52.31-1.7-3.27-1.58-4.59.1-1.07.05-2.14.16-3.21a19.16,19.16,0,0,0,.1-3.63c-4.89,5.14-9.91,10.06-14.86,15.1-1.28,1.31-2.57,2.6-3.85,3.91-.62.64-1.27,1.25-1.9,1.88-.43.41-1.54,1.15-1.73,1.72s.5,1.44.69,2a10.82,10.82,0,0,1,.39,2.66,10.4,10.4,0,0,1-1.06,4.72,10.07,10.07,0,0,1-7.72,5.2,9.54,9.54,0,0,1-8.47-3.55,9.7,9.7,0,0,1-1.53-9.71c.36-.87,1.23-1.84.81-2.84-.5-1.2-2-2.25-2.9-3.14q-4.75-4.75-9.49-9.52l-4.59-4.63c-.43-.43-1-1.28-1.7-.86-.16.1-.22.33-.36.44a4.79,4.79,0,0,1-.68.34Zm3.39-9.51c0-5.9-7.53-8.72-11.32-4.16s.22,11.49,6,10.48A6.5,6.5,0,0,0,511,357.84Zm26.5,38.63c5.89,0,8.72-7.73,4.07-11.45s-11.52.69-10.34,6.41A6.4,6.4,0,0,0,537.51,396.47Zm-66.9,0c5.89,0,8.68-7.64,4.1-11.36s-11.67.53-10.4,6.32A6.49,6.49,0,0,0,470.61,396.47Z"/><path class="cls-9" d="M543.1,316.26a6.84,6.84,0,0,1,5.77,4.86c.82,2.81-.33,6.37-3.1,7.63a7.1,7.1,0,0,1-4.26.83,6.13,6.13,0,0,1-3.91-1.93,7,7,0,0,1-1.53-7,7.9,7.9,0,0,1,2.52-3.23A7.32,7.32,0,0,1,543.1,316.26Zm-.27,3.15a3.54,3.54,0,0,0-3.74,2.92,3.31,3.31,0,0,0,3.18,3.72,3.2,3.2,0,0,0,3.45-2.52A3.3,3.3,0,0,0,542.83,319.41Z"/><path class="cls-9" d="M539.5,351.25a7.9,7.9,0,0,1-2.78-2.61,6.79,6.79,0,0,1-1-3.94,6.58,6.58,0,0,1,4.82-6,7,7,0,0,1,4,0,7.92,7.92,0,0,1,3,2.11,6.68,6.68,0,0,1,.5,8,8,8,0,0,1-3.55,2.7A7.67,7.67,0,0,1,539.5,351.25Zm2.93-3c4.36,0,4.49-6.61.15-6.72a3.52,3.52,0,0,0-3.54,3.32A3.35,3.35,0,0,0,542.43,348.25Z"/><path class="cls-9" d="M516.44,339.76a7,7,0,0,1-8.24.33,6.85,6.85,0,0,1-2.3-7.95,6.82,6.82,0,0,1,9.85-3.24,8.52,8.52,0,0,1,2.41,2.76C519.67,334.4,518.59,337.7,516.44,339.76Zm-3.56-1.88c2-.29,3.08-2.77,2.43-4.56a3.58,3.58,0,0,0-4.66-1.79,3.35,3.35,0,0,0-1.62,4.33C509.66,337.56,511.19,338,512.88,337.88Z"/><path class="cls-9" d="M463.83,342.93a9.47,9.47,0,0,1,1.81-4,7.32,7.32,0,0,1,3.69-2,6.69,6.69,0,1,1-.94,12.86C465.41,348.59,464,346,463.83,342.93Zm3.63,1.38c.08.83,1.08,1.57,1.76,1.92a3.08,3.08,0,0,0,2.38.24,3.71,3.71,0,0,0,2.37-4,3.47,3.47,0,0,0-4.61-2.39A3.3,3.3,0,0,0,467.46,344.31Z"/><path class="cls-9" d="M513.35,384.28c.82,2.73.66,5.94-1.79,7.84-2.17,1.69-5.32,2.31-7.73.73a7,7,0,0,1-3.41-6.39,6.81,6.81,0,0,1,4.86-5.82,6.89,6.89,0,0,1,4.79.37A7.41,7.41,0,0,1,513.35,384.28Zm-3,3.84a3.24,3.24,0,0,0-2.11-4.24,3.32,3.32,0,0,0-4.17,1.89,3.51,3.51,0,0,0,1.64,4.38C507.44,390.89,509.9,390,510.35,388.12Z"/><path class="cls-9" d="M561.65,391.25c2.73.48,5.2,1.85,6.07,4.64s-.1,6.36-2.79,7.84c-2.48,1.37-5.87,1.41-8-.7a6.94,6.94,0,0,1-1.88-7.17,6.3,6.3,0,0,1,2.42-3.22A7.86,7.86,0,0,1,561.65,391.25ZM558,398a3.32,3.32,0,0,0,3.18,3.44,3.49,3.49,0,0,0,3.55-3.43C564.75,393.66,558.06,393.62,558,398Z"/><path class="cls-9" d="M480.44,316.37c.17.3,1.06.44,1.39.63a8.7,8.7,0,0,1,1.69,1.25,5.94,5.94,0,0,1,1.83,3.42,6.43,6.43,0,0,1-.53,4.19,7.9,7.9,0,0,1-2.33,2.68,6.65,6.65,0,0,1-8.08-.53,6.88,6.88,0,0,1-1.85-7.65,7.44,7.44,0,0,1,2.92-3.22C477,316.18,478.69,316.38,480.44,316.37Zm-1.1,3.05a3.31,3.31,0,0,0-3.68,2.13,3.35,3.35,0,0,0,2.45,4.51,3.31,3.31,0,0,0,4-2.88A3.35,3.35,0,0,0,479.34,319.42Z"/><path class="cls-9" d="M492.32,406.06a6.79,6.79,0,0,1-8,9.54,6.7,6.7,0,0,1,0-12.78C487.48,401.83,490.51,403.32,492.32,406.06ZM483,409.75a3.28,3.28,0,0,0,4.12,2.69,3.13,3.13,0,0,0,2.45-3.81,3.33,3.33,0,0,0-3.83-2.76C483.73,406.17,483,407.93,483,409.75Z"/><path class="cls-10" d="M440.23,412l.3.22C440.35,412.21,440.2,412.21,440.23,412Z"/><path class="cls-8" d="M511,357.84a6.41,6.41,0,1,1-6.35-6.49A6.46,6.46,0,0,1,511,357.84Z"/><path class="cls-4" d="M537.51,396.47a6.32,6.32,0,0,1-6.4-6.37,6.43,6.43,0,0,1,6.52-6.43,6.22,6.22,0,0,1,6.3,6.43A6.35,6.35,0,0,1,537.51,396.47Z"/><path class="cls-7" d="M470.61,396.47a6.42,6.42,0,0,1-6.45-6.39,6.61,6.61,0,0,1,6.48-6.42,6.43,6.43,0,0,1,6.44,6.4A6.56,6.56,0,0,1,470.61,396.47Z"/></g><rect class="cls-1" x="214.31" y="389.01" width="164.12" height="163.74"/><path class="cls-11" d="M345.07,452.66l-5.38,10.25a9.86,9.86,0,0,0-10.07,4l-20.62-7a14.66,14.66,0,1,0-26.09,8.29l-9.37,12.47a18.34,18.34,0,1,0,5.87,4.4l9.42-12.53a14.2,14.2,0,0,0,17.26-4.65c.24-.32.4-.69.62-1l20.5,7a11,11,0,1,0,19-7.58l5.36-10.21Zm-44.85,10.81a7.34,7.34,0,1,1,1.4-5.44,7.33,7.33,0,0,1-1.4,5.44ZM343,476.29a5.51,5.51,0,1,1,.63-2.56A5.57,5.57,0,0,1,343,476.29Z"/><rect class="cls-4" x="348.07" y="444.18" width="7.34" height="7.34" transform="translate(-208.23 551.4) rotate(-62.33)"/><rect class="cls-4" x="354.16" y="436.06" width="3.67" height="7.34" transform="translate(-198.76 550.82) rotate(-62.33)"/><rect class="cls-5" x="358.06" y="430.37" width="1.83" height="7.34" transform="translate(-192.12 550.44) rotate(-62.33)"/><rect class="cls-5" x="360.95" y="425.91" width="0.73" height="7.34" transform="translate(-186.86 550.34) rotate(-62.36)"/><circle class="cls-12" cx="265.69" cy="497.24" r="18.34"/><path class="cls-9" d="M227.93,505.85a7.32,7.32,0,0,0,0,2.68c0,1.08-.11,2.15-.11,3.23,0,.85,0,1.69,0,2.54,0,.47-.16,1.28.31,1.56s1.74,0,2.29,0h3.17c1.87,0,3.75,0,5.62,0,1.34,0,2.7.76,2.19,2.3s-2,1.52-3.34,1.44c-2-.11-4,0-5.94,0-.82,0-1.63,0-2.44,0-.57,0-1.34-.18-1.71.37a4.75,4.75,0,0,0-.16,2.43c0,1,.13,2.08.09,3.12-.05,2-.11,3.88-.05,5.82s0,3.77-.07,5.63a5,5,0,0,0,0,1.76c.29.77,1,.45,1.68.42,2.09-.07,4.18.12,6.27.1s4-.1,6-.08c.87,0,1.74,0,2.62.06s1.16-.12,1.23-1a21.9,21.9,0,0,0-.09-2.56c0-1.08,0-2.17,0-3.25a30,30,0,0,1,.07-5.28,1.87,1.87,0,0,1,3.06-1.14c1.18,1,.69,3.37.69,4.74,0,2-.13,3.94-.09,5.91a4.09,4.09,0,0,0,.35,2.16c.51.69,1.56.45,2.29.4,2-.13,4,0,6,0s4.16,0,6.24,0a5.93,5.93,0,0,0,2.06,0c.59-.29.26-1.44.29-2,.12-2,0-4,0-5.93,0-.87,0-1.75,0-2.63a4,4,0,0,1,.41-2.35,1.78,1.78,0,0,1,3.15.49,6.76,6.76,0,0,1,.15,2.2c0,1.06,0,2.11,0,3.17,0,1.93.07,3.88-.05,5.81,0,.66-.06,1.15.7,1.29a18.15,18.15,0,0,0,2.95,0q6.08-.06,12.16,0c.51,0,1.11.13,1.4-.38s.07-2,.06-2.6c0-1.87-.07-3.74-.08-5.6a13.15,13.15,0,0,1,.1-3.71,1.93,1.93,0,0,1,2.94-1.09c1.11.84.65,3.29.66,4.46,0,2,0,4,0,6,0,.67-.23,1.89.14,2.49s1,.45,1.62.4c1.82-.16,3.7,0,5.53,0,2.1,0,4.21,0,6.31,0,.92,0,1.85,0,2.76-.06.6,0,.81-.1.9-.73a42.42,42.42,0,0,0,0-6.07c0-1,0-1.91,0-2.86a9.58,9.58,0,0,1,.09-2.73,1.75,1.75,0,0,1,2.95-.68c1.11,1,.69,3.08.63,4.43-.09,2.08.05,4.15,0,6.24,0,.56-.25,1.52.06,2s1.06.42,1.58.43c3.93.06,7.9.07,11.84,0,.9,0,1.84,0,2.74,0s1-.47,1-1.19c.08-1.53-.1-3.13-.1-4.66s0-3.24-.08-4.86c0-1.18.12-2.57,1.46-2.94,1.54-.43,2.27,1.15,2.35,2.43.13,2,.06,4,.05,6,0,.94,0,1.89,0,2.83a4.3,4.3,0,0,0,0,1.82c.28.65.88.58,1.49.55,1,0,2,0,3,0,2,0,4.07-.05,6.12,0,.87,0,1.75,0,2.62,0s2,.11,2.89,0c1.4-.14,1.09-1.56,1-2.59-.09-2.07,0-4.14,0-6.21a13.58,13.58,0,0,1,.07-3.49,1.6,1.6,0,0,1,2.61-1c1.3,1.07.85,3.29.85,4.75,0,2.05,0,4.09-.06,6.14,0,.54-.26,1.85.18,2.27s1.45.11,1.92.1c2,0,4,0,6,0,1.19,0,8.79-.43,6.34,2.81-.75,1-2.33.81-3.42.75-1.8-.09-3.61,0-5.42,0H257.4c-8.47,0-16.95,0-25.42,0-1.95,0-3.94.15-5.89,0s-1.81-1.93-1.76-3.46c.13-4,.09-7.95.09-11.93V406.77c0-1.9-.16-3.85,0-5.74.09-1.28,1.07-2.47,2.46-1.86s1.11,2.77,1.06,4c-.1,2.07,0,4.12,0,6.19,0,.74-.1,1.53,0,2.27s.29.77,1,.81c2,.09,4.12,0,6.16-.06,1.66,0,4.07-.48,5.62.26a1.71,1.71,0,0,1,0,3c-1.42.71-3.69.3-5.22.28-1.94,0-3.91-.15-5.85-.05-.55,0-1.23,0-1.55.55s-.05,1.69-.07,2.41c-.09,3.89,0,7.79-.09,11.68,0,1.24-.18,2.47,1.38,2.46,2,0,4-.12,6-.13,1,0,2.05,0,3.08,0a5.65,5.65,0,0,1,2.35.31,1.84,1.84,0,0,1,.44,2.77c-.73.7-2,.59-2.93.59-1.8,0-3.64.11-5.43,0-1-.06-1.93.06-2.9.08-.65,0-1.58-.39-1.93.37a4.1,4.1,0,0,0,0,1.81,27.59,27.59,0,0,1,0,3.15c-.06,2,0,4,0,6.07,0,1,0,2,0,3,0,.61-.31,1.8.09,2.35s1.25.38,1.8.38c1,0,2.06,0,3.09-.05,2,0,3.94,0,5.91,0,1.25,0,2.77.37,2.79,1.94s-1.85,1.81-3.1,1.8c-2,0-4.09.08-6.13,0-1,0-1.89-.05-2.84-.05-.53,0-1.2-.08-1.53.43s-.16,1.54-.15,2.12c0,1,0,2.05,0,3.08,0,2.1.08,4.2.06,6.31l0,2.78c0,.47-.23,1.31.07,1.72s1.32.22,1.86.24c1,0,2.09,0,3.13,0,2,0,4-.06,6,0,1.3.05,2.81.55,2.55,2.15s-2.07,1.49-3.4,1.52c-1.94.06-3.88.05-5.82.05-.86,0-1.72,0-2.57,0-.51,0-1.41-.27-1.76.23s-.11,1.29-.1,1.77c0,1,0,2,0,3q0,3,0,6.09c0,1.66-.15,3.4,0,5,0,.55.19,1,.77,1.09a16.44,16.44,0,0,0,2.8-.06c2,0,4.09,0,6.14,0,1.48,0,3.73-.31,4,1.68.21,1.44-1.06,2-2.26,2.11a36.66,36.66,0,0,1-3.78,0c-1.79,0-3.58.06-5.37-.05-1.13-.07-2.23-.16-2.26,1.26A55.31,55.31,0,0,0,227.93,505.85Z"/><path class="cls-13" d="M497.72,258.85a195,195,0,0,0-25-63.37,198.38,198.38,0,0,0-45.61-51.4,200,200,0,0,1,77.1,113.29,3.32,3.32,0,1,1-6.44,1.63Z"/><polygon class="cls-13" points="505.25 286.03 514.91 244.14 500.38 256.07 482.81 249.35 505.25 286.03"/><path class="cls-13" d="M402.88,473.4A196.66,196.66,0,0,0,437.55,452a200,200,0,0,1-32.37,25.56,2.37,2.37,0,0,1-2.55-4Z"/><polygon class="cls-13" points="378.43 487.41 421.35 484.91 405.81 474.31 407.31 455.57 378.43 487.41"/><path class="cls-13" d="M138.37,398.8A197.33,197.33,0,0,0,214.31,477a200.67,200.67,0,0,1-81.48-75,3.19,3.19,0,0,1,5.45-3.32A1.29,1.29,0,0,1,138.37,398.8Z"/><polygon class="cls-13" points="123.39 374.92 126.36 417.81 136.79 402.15 155.54 403.45 123.39 374.92"/><path class="cls-13" d="M169.38,164.84a196.58,196.58,0,0,0-51.3,80.06A197.91,197.91,0,0,1,136.26,200,201.22,201.22,0,0,1,165,160.48a3.1,3.1,0,1,1,4.54,4.22Z"/><polygon class="cls-13" points="188.45 144.08 147.9 158.37 165.76 164.25 169.51 182.67 188.45 144.08"/><rect class="cls-1" x="34.91" y="244.9" width="146.18" height="130.02"/><path class="cls-14" d="M171.14,269.41c-.38.15-.77.47-1.14.45-6-.45-5.71,3.34-5.67,7.64.16,20.62.07,41.24.07,61.86,0,6.77,0,6.77-7,6.77h-27c4.13,4.4,7.6,8.11,11.1,11.81,1.46,1.54,3.45,3.29,1.33,5.3s-4.06,0-5.2-1.67c-3.7-5.48-8.71-6.73-15.1-6.44-10.91.51-21.88.33-32.81,0-3.87-.11-6.73.84-9,3.93a28.11,28.11,0,0,1-2.57,2.78c-1.4,1.46-3,3.18-5,1.39s-.42-3.51,1-5c3.57-3.73,7.11-7.51,10.64-11.25-.9-1.48-2.14-.84-3.12-.84-7.72-.07-15.43,0-23.15,0-7,0-7,0-7-6.77,0-21-.05-42.08,0-63.12,0-3.56.4-6.91-4.87-6.1-.59.09-1.27-.47-1.91-.73V266a14.62,14.62,0,0,1,6.12-1q22.92.06,45.84,0c2.64,0,5.69,1,7.81-.48,1.84-1.27.43-4.2.77-6.37.23-1.45.93-2.39,2.38-2.47a2.4,2.4,0,0,1,2.77,2.47,13.79,13.79,0,0,1,.06,2.94c-.46,3.14.77,4,3.94,4,16.82-.16,33.64-.06,50.47-.1a14.67,14.67,0,0,1,6.12,1ZM107.81,341c16,0,32-.06,47.93.06,2.75,0,3.57-.74,3.56-3.52q-.15-31.74,0-63.49c0-3-.95-3.73-3.83-3.72q-47.5.13-95,0c-3,0-3.78.83-3.77,3.77q.18,31.55,0,63.07c0,3.26,1,3.93,4,3.9C76.42,340.89,92.12,341,107.81,341ZM90.44,349.6h35.15c-1.29-2.51-2.86-3.56-5.46-3.52q-12.15.21-24.3,0C93.23,346,91.68,347.08,90.44,349.6Z"/><path class="cls-15" d="M159.48,274.19c0-3-.95-3.73-3.83-3.72q-47.5.13-95,0c-3,0-3.79.83-3.77,3.77q.18,31.53,0,63.07c0,3.26,1,3.93,4,3.9,15.7-.15,31.39-.07,47.09-.07,16,0,32-.06,47.93.06,2.75,0,3.57-.74,3.56-3.52Q159.31,305.94,159.48,274.19Z"/><polyline class="cls-16" points="66.57 308.54 85.13 316.47 106.39 284.25 129 305.67 139.41 291.12"/><path class="cls-14" d="M143.84,284.92a38.3,38.3,0,0,0-1.39,12.27l-3.62-5.26-6.15-1.72A38.27,38.27,0,0,0,143.84,284.92Z"/><polyline class="cls-17" points="66.74 319.84 85.64 324.23 107.74 307.36 130.68 323.89 136.22 320.38"/><path class="cls-18" d="M142.66,316.3a38.18,38.18,0,0,0-5.9,10.85l-1.38-6.23-5-3.91A38.16,38.16,0,0,0,142.66,316.3Z"/><path class="cls-19" d="M57.19,388.46c-8.14-4.67-16.27-9.39-24.45-14a6.45,6.45,0,0,1-3.61-6.21q.11-12.87,0-25.75a6.22,6.22,0,0,1,3.44-5.93q11.28-6.4,22.47-13a6.15,6.15,0,0,1,6.92,0c7.1,4.19,14.26,8.29,21.43,12.37,2.08,1.19,4,2.47,4.5,5v.24c-.39.26-.23.65-.23,1q0,13.29,0,26.57c0,.33-.18.73.23,1V370c-.63,2.42-2.34,3.82-4.47,4.91-1.63.83-3.16,1.84-4.76,2.73-6.38,3.57-12.56,7.49-19.07,10.82Zm-26.59-33c0,4.36,0,8.71,0,13.07A4.69,4.69,0,0,0,33.17,373q11.32,6.5,22.6,13.07a4.94,4.94,0,0,0,5.49-.05q11.17-6.52,22.41-12.92a4.92,4.92,0,0,0,2.73-4.66v-25.9a5.08,5.08,0,0,0-2.84-4.84c-7.54-4.26-15-8.61-22.52-13a4.68,4.68,0,0,0-5.08,0c-7.56,4.39-15.12,8.79-22.72,13.11a4.88,4.88,0,0,0-2.65,4.7C30.62,346.82,30.6,351.14,30.6,355.45Z"/><path class="cls-20" d="M30.6,355.45c0-4.31,0-8.63,0-12.94a4.88,4.88,0,0,1,2.65-4.7c7.6-4.32,15.16-8.72,22.72-13.11a4.68,4.68,0,0,1,5.08,0c7.49,4.36,15,8.71,22.52,13a5.08,5.08,0,0,1,2.84,4.84v25.9a4.92,4.92,0,0,1-2.73,4.66Q72.42,379.49,61.26,386a4.94,4.94,0,0,1-5.49.05Q44.51,379.49,33.17,373a4.69,4.69,0,0,1-2.59-4.48C30.63,364.16,30.6,359.81,30.6,355.45Zm37.79,9.48H70.9c.55,0,1-.21,1-.78A11.39,11.39,0,0,0,71.8,360a2,2,0,0,1,.19-1.78,23.28,23.28,0,0,1,3.05-4,8.07,8.07,0,0,0,2.17-7.63c-.86-3.75-3.44-6-7.15-6.73a9.24,9.24,0,0,0-9.48,4c-2.11,3.35-1.68,7.2,1,10.37,1.76,2.06,3.74,3.89,3.33,7.21C64.5,364.9,64.84,364.94,68.39,364.93ZM48.61,371.2h2.63c.49,0,.93-.1.92-.68a19.2,19.2,0,0,0-.11-4.29,2,2,0,0,1,.2-1.57,28,28,0,0,1,3.46-4.57,7.72,7.72,0,0,0,2-4.65c.27-4.93-3.05-8.75-8.11-9.37a9.38,9.38,0,0,0-8.79,4.27,8.11,8.11,0,0,0,.75,9.68,36.79,36.79,0,0,1,3.41,4.46c.25.44.64.88.41,1.44-.55,1.31-.25,2.68-.3,4,0,.85.32,1.35,1.29,1.26C47.09,371.15,47.85,371.2,48.61,371.2Zm-8.13-28.31a.74.74,0,0,0-.75.44.74.74,0,0,0,.23.86c.7.7,1.39,1.41,2.1,2.1.36.34.75.45,1.13,0a.67.67,0,0,0-.08-1c-.7-.7-1.39-1.41-2.1-2.09A1.94,1.94,0,0,0,40.48,342.89Zm17.2.77a.74.74,0,0,0-.47-.72.78.78,0,0,0-.86.23l-2.1,2.1a.68.68,0,0,0-.11,1c.37.43.78.33,1.14,0q1.06-1,2.1-2.1A2.47,2.47,0,0,0,57.68,343.66ZM48,342c0,.56,0,1.12,0,1.68,0,.4.2.7.65.69s.64-.31.64-.71c0-1.08,0-2.16,0-3.23,0-.45-.27-.63-.71-.61a.54.54,0,0,0-.56.62C48,340.91,48,341.43,48,342Z"/><path class="cls-19" d="M68.39,364.93c-3.55,0-3.89,0-3.45-3.51.41-3.32-1.57-5.15-3.33-7.21-2.71-3.17-3.14-7-1-10.37a9.24,9.24,0,0,1,9.48-4c3.71.77,6.29,3,7.15,6.73A8.07,8.07,0,0,1,75,354.22a23.28,23.28,0,0,0-3.05,4A2,2,0,0,0,71.8,360a11.39,11.39,0,0,1,.13,4.16c0,.57-.48.79-1,.78Zm1.52-6.76.37.15c1.13-2.47,3.21-4.22,4.69-6.42a6.27,6.27,0,0,0,.73-5.39c-1-3.65-4.42-5.71-8.58-5.28C62,341.77,59,347.74,61.76,352c1.41,2.14,3.45,3.81,4.65,6.14a16.35,16.35,0,0,0-.18-4.43c-.06-.93-.27-1.7-1.45-1.93a1.55,1.55,0,0,1-1.16-1.85,1.41,1.41,0,0,1,1.24-1.28,1.46,1.46,0,0,1,1.82,1.16c.27,1.26,1.15.9,1.93,1s1.08-.27,1.35-1c.43-1.12,1.26-1.49,2.15-1.1a1.38,1.38,0,0,1,.94,1.39,1.92,1.92,0,0,1-1.37,1.77c-.4.17-1,0-1.07.74C70.4,354.5,70.15,356.33,69.91,358.17Zm-1.56,5.32c2.37,0,2.08.26,2.21-1.11.11-1.18-.33-1.57-1.46-1.43a7.66,7.66,0,0,1-1.79,0c-.87-.1-1,.29-1.08,1.08-.11,1.25.35,1.66,1.53,1.46A3.85,3.85,0,0,1,68.35,363.49Zm-.1-4.06.15,0c.25-2.17.48-4.34.76-6.51.09-.66-.26-.74-.75-.72s-1-.11-.9.7C67.78,355.09,68,357.26,68.25,359.43Z"/><path class="cls-19" d="M48.61,371.2c-.76,0-1.52-.05-2.28,0-1,.09-1.32-.41-1.29-1.26.05-1.35-.25-2.72.3-4,.23-.56-.16-1-.41-1.44A36.79,36.79,0,0,0,41.52,360a8.11,8.11,0,0,1-.75-9.68,9.38,9.38,0,0,1,8.79-4.27c5.06.62,8.38,4.44,8.11,9.37a7.72,7.72,0,0,1-2,4.65,28,28,0,0,0-3.46,4.57,2,2,0,0,0-.2,1.57,19.2,19.2,0,0,1,.11,4.29c0,.58-.43.68-.92.68Zm1.6-6.77.42.16c1.11-2.4,3.06-4.14,4.58-6.22a5,5,0,0,0,.75-1.62,6.66,6.66,0,0,0-1.8-7,7.61,7.61,0,0,0-7.85-1.92c-4.83,1.38-6.92,7-4,10.88,1.53,2,3.45,3.78,4.6,6.45a37.26,37.26,0,0,0-.35-5.1c-.08-1-.29-1.69-1.46-1.93a1.55,1.55,0,0,1-1.15-1.86A1.42,1.42,0,0,1,45.29,355a1.46,1.46,0,0,1,1.7,1.2c.31,1.53,1.48.77,2.28,1s.75-.63,1-1c.46-.78,1-1.39,2-1a1.39,1.39,0,0,1,1.11,1.38A1.94,1.94,0,0,1,52,358.23c-.37.16-1,0-1.05.59C50.69,360.69,50.46,362.56,50.21,364.43Zm-1.59,2.93a6,6,0,0,1-.95,0c-1-.18-1.21.32-1.22,1.26s.33,1.24,1.22,1.15a9.38,9.38,0,0,1,1.91,0c.9.1,1.19-.18,1.22-1.15s-.33-1.42-1.34-1.26A5.89,5.89,0,0,1,48.62,367.36Zm-.11-1.54c.47-2.16.53-4.35,1-6.49.14-.69-.18-.84-.76-.82s-1,0-.88.74.21,1.65.29,2.48C48.25,363.09,48.38,364.45,48.51,365.82Z"/><path class="cls-19" d="M40.48,342.89a1.94,1.94,0,0,1,.53.3c.71.68,1.4,1.39,2.1,2.09a.67.67,0,0,1,.08,1c-.38.42-.77.31-1.13,0-.71-.69-1.4-1.4-2.1-2.1a.74.74,0,0,1-.23-.86A.74.74,0,0,1,40.48,342.89Z"/><path class="cls-19" d="M57.68,343.66a2.47,2.47,0,0,1-.3.54q-1,1.07-2.1,2.1c-.36.34-.77.44-1.14,0a.68.68,0,0,1,.11-1l2.1-2.1a.78.78,0,0,1,.86-.23A.74.74,0,0,1,57.68,343.66Z"/><path class="cls-19" d="M48,342c0-.52,0-1,0-1.56a.54.54,0,0,1,.56-.62c.44,0,.71.16.71.61,0,1.07,0,2.15,0,3.23,0,.4-.18.71-.64.71s-.63-.29-.65-.69C48,343.07,48,342.51,48,342Z"/><path class="cls-21" d="M69.91,358.17c.24-1.84.49-3.67.7-5.51.08-.7.67-.57,1.07-.74a1.92,1.92,0,0,0,1.37-1.77,1.38,1.38,0,0,0-.94-1.39c-.89-.39-1.72,0-2.15,1.1-.27.69-.55,1.06-1.35,1s-1.66.26-1.93-1a1.46,1.46,0,0,0-1.82-1.16,1.41,1.41,0,0,0-1.24,1.28,1.55,1.55,0,0,0,1.16,1.85c1.18.23,1.39,1,1.45,1.93a16.35,16.35,0,0,1,.18,4.43c-1.2-2.33-3.24-4-4.65-6.14-2.8-4.27.21-10.24,5.36-10.78,4.16-.43,7.56,1.63,8.58,5.28A6.27,6.27,0,0,1,75,351.9c-1.48,2.2-3.56,4-4.69,6.42Z"/><path class="cls-21" d="M68.35,363.49a3.85,3.85,0,0,0-.59,0c-1.18.2-1.64-.21-1.53-1.46.07-.79.21-1.18,1.08-1.08a7.66,7.66,0,0,0,1.79,0c1.13-.14,1.57.25,1.46,1.43C70.43,363.75,70.72,363.47,68.35,363.49Z"/><path class="cls-21" d="M68.25,359.43c-.24-2.17-.47-4.34-.74-6.5-.1-.81.44-.68.9-.7s.84.06.75.72c-.28,2.17-.51,4.34-.76,6.51Z"/><path class="cls-22" d="M50.21,364.43c.25-1.87.48-3.74.76-5.61.08-.56.68-.43,1.05-.59a1.94,1.94,0,0,0,1.35-1.79,1.39,1.39,0,0,0-1.11-1.38c-1-.35-1.54.26-2,1-.24.42-.11,1.27-1,1s-2,.55-2.28-1a1.46,1.46,0,0,0-1.7-1.2,1.42,1.42,0,0,0-1.36,1.29,1.55,1.55,0,0,0,1.15,1.86c1.17.24,1.38,1,1.46,1.93a37.26,37.26,0,0,1,.35,5.1c-1.15-2.67-3.07-4.42-4.6-6.45-2.9-3.86-.81-9.5,4-10.88a7.61,7.61,0,0,1,7.85,1.92,6.66,6.66,0,0,1,1.8,7,5,5,0,0,1-.75,1.62c-1.52,2.08-3.47,3.82-4.58,6.22Z"/><path class="cls-21" d="M48.62,367.36a5.89,5.89,0,0,0,.84,0c1-.16,1.37.16,1.34,1.26s-.32,1.25-1.22,1.15a9.38,9.38,0,0,0-1.91,0c-.89.09-1.24-.17-1.22-1.15s.18-1.44,1.22-1.26A6,6,0,0,0,48.62,367.36Z"/><path class="cls-22" d="M48.51,365.82c-.13-1.37-.26-2.73-.4-4.09-.08-.83-.16-1.66-.29-2.48s.38-.72.88-.74.9.13.76.82C49,361.47,49,363.66,48.51,365.82Z"/></svg>