<svg id="Layer_1" data-name="Layer 1" xmlns="http://www.w3.org/2000/svg" viewBox="0 0 618 570"><defs><style>.cls-1{fill:#575757;}.cls-2{fill:#c1c0c0;}.cls-3{fill:#cfdae1;}.cls-4{fill:#ebeaea;}.cls-5{fill:#f18374;}.cls-6{fill:#d8685d;}.cls-7{fill:#eaba62;}.cls-8{fill:#86c2c3;}.cls-9{fill:#fff;}.cls-10{fill:#f286b6;}.cls-11{fill:#9a94c8;}.cls-12{fill:#f2aa76;}.cls-13{fill:#6b8d97;}.cls-14{fill:#416575;}.cls-15{fill:#aad6db;}.cls-16{fill:#d0dae2;}.cls-17{fill:#cfd9e1;}.cls-18{fill:#ffde7e;}</style></defs><title>Artboard 1</title><path class="cls-1" d="M496.41,407.19c16.53-11.79,32.1-22.91,47.69-34,1.7-1.2,3.27-3,5.79-1.71s2.53,3.62,2.53,6q0,57.47,0,114.92c0,4.73-1.85,6.49-6.54,6.49q-85.44-.13-170.88-.07c-5.62,0-6.62-1-6.62-6.78q0-57.21,0-114.42c0-5.74,1-6.75,6.62-6.78,8.66,0,17.33.16,26-.08,4-.11,6.47,1.25,8.46,4.73,5.86,10.25,12.09,20.28,18,30.53,1.6,2.79,2.78,3.18,5.61,1.38,18.1-11.51,36.33-22.84,54.54-34.17,1.89-1.18,3.69-3.14,6.33-1.82,2.81,1.42,2.47,4,2.47,6.54Zm16.34,35.62c-3.66,0-7.32.09-11,0s-5.47,1.52-5.42,5.35q.16,10.72,0,21.46c-.05,3.87,1.73,5.36,5.48,5.3,7.15-.11,14.31-.08,21.46,0,3.54,0,5.2-1.51,5.16-5.09q-.09-11,0-22c0-3.61-1.7-5.13-5.21-5S516.25,442.81,512.75,442.81Zm-48.22,0c-3.66,0-7.32.06-11,0s-5.22,1.48-5.19,5.07q.11,11,0,22c0,3.6,1.67,5.1,5.2,5.06,7.32-.08,14.64-.05,22,0,3.28,0,4.93-1.47,4.92-4.81q0-11.24,0-22.46c0-3.34-1.65-4.84-4.93-4.8C471.85,442.84,468.19,442.81,464.53,442.81Z"/><path class="cls-2" d="M424.41,354.83q-24.74,0-49.48,0c-5.64,0-7-1.9-6.28-7.32,1.79-12.74,8-22.38,19.42-28.47a34.58,34.58,0,0,1,41.66,6.69c2.76,2.88,4.37,3.65,8.35,1.24,16.3-9.85,37-2.09,42.07,19,1.59,6.65-.41,8.83-7.26,8.83Z"/><path class="cls-3" d="M512.75,442.81c3.5,0,7,.06,10.49,0s5.24,1.43,5.21,5q-.09,11,0,22c0,3.58-1.62,5.13-5.16,5.09-7.15-.07-14.31-.1-21.46,0-3.75.06-5.53-1.43-5.48-5.3q.16-10.72,0-21.46c-.05-3.83,1.64-5.47,5.42-5.35S509.09,442.81,512.75,442.81Z"/><path class="cls-3" d="M464.53,442.81c3.66,0,7.32,0,11,0,3.28,0,4.94,1.46,4.93,4.8q0,11.23,0,22.46c0,3.34-1.64,4.83-4.92,4.81-7.32,0-14.64-.07-22,0-3.53,0-5.23-1.46-5.2-5.06q.11-11,0-22c0-3.59,1.66-5.15,5.19-5.07S460.87,442.81,464.53,442.81Z"/><path class="cls-4" d="M133.65,243.07c-13.81,0-27.62.06-41.44,0-7.25,0-10.68-3.42-10.68-10.67q0-41.19,0-82.37c10.16,2.49,19.1.57,26.28-7.41,1.42-1.57,2.17-1.18,3.53.11q18,17,36.4-.06c1.45-1.35,2.21-1.49,3.53,0a24,24,0,0,0,36.44.06c1.26-1.44,2.11-1.7,3.52-.13,7.16,8,16.1,9.91,26.26,7.39q0,6.6,0,13.21c-9.42-.4-18.23,1.46-25.78,7.41-14.73,11.62-18,30-8.61,47.54,4.72,8.85,10.81,16.75,16.79,24.74l-34.5.12c.05-11.46,0-22.92.15-34.37,0-4.06-1.89-5.66-5.81-5.6q-10.22.15-20.43,0c-3.93-.06-5.84,1.55-5.8,5.61C133.61,220.15,133.61,231.61,133.65,243.07Zm16-51.93h11c3.26,0,4.93-1.61,4.94-4.88,0-4.83,0-9.65,0-14.47,0-3-1.61-4.65-4.64-4.67-7.48,0-15,0-22.45,0-3.26,0-4.93,1.61-4.94,4.89,0,4.66,0,9.31,0,14,0,3.51,1.63,5.22,5.15,5.19S146,191.14,149.62,191.14Z"/><path class="cls-5" d="M65.82,123.18c10.08-16.65,21-32.75,31.71-49a6.31,6.31,0,0,1,5.8-3.1q46.19.07,92.37,0a6.34,6.34,0,0,1,5.8,3.1c10.71,16.24,21.64,32.35,31.72,49Z"/><path class="cls-5" d="M199.89,243c-6-8-12.07-15.89-16.79-24.74-9.37-17.57-6.12-35.92,8.61-47.54,7.55-5.95,16.36-7.81,25.78-7.41,11.09,2,20.31,7,26.4,16.84,7.68,12.4,6.7,25,.34,37.42-7,13.75-16.75,25.48-27.69,36.29-2.37,2.34-4.08,2.09-6.21-.2C207,250,203.38,246.49,199.89,243Zm13.7-31.83a12,12,0,1,0-12.06-11.8A11.7,11.7,0,0,0,213.59,211.12Z"/><path class="cls-6" d="M65.82,123.18h167.4c.7,12.43-4.5,21.41-15.72,26.87-10.16,2.52-19.1.61-26.26-7.39-1.41-1.57-2.26-1.31-3.52.13a24,24,0,0,1-36.44-.06c-1.32-1.51-2.08-1.37-3.53,0q-18.42,17.1-36.4.06c-1.36-1.29-2.11-1.68-3.53-.11-7.18,8-16.12,9.9-26.28,7.41C70.27,144.63,65.16,135.59,65.82,123.18Z"/><path class="cls-7" d="M133.65,243.07c0-11.46,0-22.92-.15-34.37,0-4.06,1.87-5.67,5.8-5.61q10.22.16,20.43,0c3.92-.06,5.85,1.54,5.81,5.6-.11,11.45-.1,22.91-.15,34.37Z"/><path class="cls-8" d="M149.62,191.14c-3.66,0-7.32,0-11,0s-5.18-1.68-5.15-5.19c0-4.66,0-9.31,0-14,0-3.28,1.68-4.89,4.94-4.89,7.49,0,15,0,22.45,0,3,0,4.61,1.65,4.64,4.67,0,4.82,0,9.64,0,14.47,0,3.27-1.68,4.88-4.94,4.88Z"/><path class="cls-9" d="M213.59,211.12a12,12,0,1,1,11.93-12A11.69,11.69,0,0,1,213.59,211.12Z"/><path class="cls-8" d="M416.63,239.26c-.05,3.82-.08,7.65-.17,11.47,0,2.49-1.27,4.27-3.81,4.39a3.69,3.69,0,0,1-4.08-4.06c.3-11.77-1.19-23.59,1.28-35.29,2.35-11.14,8.73-19.91,16-28.23,8.16-9.3,18.2-16.47,27.61-24.35a25.87,25.87,0,0,0,7-5.45c12.58-8.64,24.74-17.75,33.76-30.36l4.94-7.95c4.17-7.52,5.57-15.64,5.2-24.14V87.24c0-3.82.05-7.64.14-11.46.07-2.47,1.27-4.26,3.84-4.36a3.69,3.69,0,0,1,4,4.08c-.31,11.76,1.18,23.57-1.29,35.27-2.39,11.32-8.89,20.22-16.35,28.59-8.11,9.1-18,16.17-27.26,24a25.8,25.8,0,0,0-7,5.45c-12.57,8.66-24.63,17.88-33.8,30.32l-5.07,8.07a47.44,47.44,0,0,0-5,24.1Z"/><path class="cls-10" d="M460.5,168.79a25.8,25.8,0,0,1,7-5.45c9.35,7.44,18.75,14.77,27,23.53,11.81,12.51,18.72,26.75,18,44.29-.25,6.13-.07,12.29,0,18.44,0,3-.73,5.59-4.2,5.49-3.12-.09-3.86-2.57-3.84-5.36,0-3.48-.08-7-.13-10.46v-8c.32-8.55-.82-16.76-5.59-24.13-1.16-3-2.24-5.95-5-7.93a20.44,20.44,0,0,0-1.71-2.95C483.12,185.3,472.1,176.72,460.5,168.79Z"/><path class="cls-10" d="M460.48,157.74a25.87,25.87,0,0,1-7,5.45c-8.54-6.86-17.15-13.58-25-21.33-13.82-13.69-21.43-29.65-20.1-49.45.35-5.29.06-10.63.05-15.94,0-2.85,1-5.12,4.16-5,2.83.07,3.84,2.2,3.86,4.85,0,3.65.08,7.3.13,11V95.3c-.26,8.5.75,16.72,5.5,24.09a24.84,24.84,0,0,0,4.66,8C435.8,140,447.94,149.08,460.48,157.74Z"/><path class="cls-11" d="M416.63,95.3V87.24h87.75v8.05Z"/><path class="cls-12" d="M504.34,231.26v8H416.63v-8Z"/><path class="cls-9" d="M416.63,95.3h87.75c.37,8.5-1,16.62-5.19,24.14l-77.06,0C417.38,112,416.37,103.8,416.63,95.3Z"/><path class="cls-9" d="M504.34,231.26l-87.71,0a47.44,47.44,0,0,1,5-24.1l77.12-.05C503.52,214.5,504.66,222.71,504.34,231.26Z"/><path class="cls-9" d="M460.48,157.74c-12.54-8.66-24.68-17.76-33.69-30.33l67.45,0C485.22,140,473.06,149.1,460.48,157.74Z"/><path class="cls-9" d="M460.5,168.79c11.6,7.93,22.62,16.51,31.58,27.46a20,20,0,0,1,1.71,3l-67.09-.1C435.87,186.67,447.93,177.45,460.5,168.79Z"/><path class="cls-11" d="M426.7,199.11l67.09.1c2.72,2,3.8,5,5,7.92l-77.12.05Z"/><path class="cls-12" d="M494.24,127.38l-67.45,0a24.84,24.84,0,0,1-4.66-8l77.06,0Z"/><path class="cls-8" d="M194.25,382.22A26.25,26.25,0,0,1,209,378.79c5.13.16,10.29.33,15.41,0,12.45-.87,21,4.09,25.14,16.05v34a9.07,9.07,0,0,1-6.07,4c-5.15.79-6.46,4.18-6.76,8.71-.64,9.78-1.45,19.55-2.19,29.33-.1,1.33-.05,2.67-.25,4-1.17,7.92-1.29,8-9.45,8-5.66,0-11.33-.11-17,0-4,.1-6.18-1.11-6.54-5.53-1.05-13.24-2.42-26.45-3.66-39.68-.11-1.15,0-2.38-1.25-3a15.22,15.22,0,0,0,1.2-5.76c-.08-8.11-.14-16.22,0-24.33C197.71,396.88,197.79,389.29,194.25,382.22Z"/><path class="cls-13" d="M162.55,314.82c8.53,3.24,15.43,8.12,18.07,17.49a24,24,0,1,1-32.49-15.6c1.47-.64,3.34-.37,4.42-1.89Z"/><path class="cls-14" d="M194.25,382.22c3.54,7.07,3.46,14.66,3.33,22.3-.13,8.11-.07,16.22,0,24.33a15.22,15.22,0,0,1-1.2,5.76c-3,2.79-6.86,4.1-10.58,5.4-3.53,1.24-4.72,3.34-4.94,6.91-.93,15.12-2.25,30.21-3.1,45.33-.27,4.84-2,6.81-7,6.65-9.15-.28-18.32-.18-27.47,0-4,.06-5.64-1.65-5.92-5.58-1.13-15.44-2.58-30.85-3.56-46.29-.21-3.4-1.51-4.95-4.39-6.25-3.76-1.69-7.68-3.22-10.77-6.14a15.17,15.17,0,0,1-1.18-6.26c.07-8.11.14-16.23,0-24.33-.14-7.49-.13-14.9,3.35-21.8,5.84-8.35,14-11.69,24-11.44q12.69.32,25.39,0C180.27,370.53,188.41,373.88,194.25,382.22Z"/><path class="cls-8" d="M120.86,382.22c-3.48,6.9-3.49,14.31-3.35,21.8.15,8.1.08,16.22,0,24.33a15.17,15.17,0,0,0,1.18,6.26c-2.09,3-1.77,6.57-2.08,10-1,11.07-2,22.14-2.89,33.23-.3,3.89-2.39,5.08-5.93,5q-10.23-.12-20.48,0c-3.52,0-5.64-1.11-5.95-5-.83-10.42-1.86-20.82-2.82-31.23-.26-2.81-.81-5.61-.79-8.42s-1.54-3.89-4-4.84c-8.14-3.2-8.25-3.53-8.25-12.5,0-6.83,0-13.65,0-20.48.09-13.21,8.31-21.43,21.51-21.52,6.32,0,12.65.13,19-.05A26.76,26.76,0,0,1,120.86,382.22Z"/><path class="cls-15" d="M97.79,330.82a20,20,0,1,1-20.24,19.64A19.81,19.81,0,0,1,97.79,330.82Z"/><path class="cls-15" d="M217.44,330.82a20,20,0,1,1-19.89,20A19.83,19.83,0,0,1,217.44,330.82Z"/><path class="cls-16" d="M48.17,527.12c-3.42-2.43-5.69-5.43-5-9.92.34-2.12,2.47-2.67,2.88-1.17,1,3.81,3.81,6.22,5.74,9.3.21.33-.42,1.18-.66,1.79Z"/><path class="cls-16" d="M558.17,527.12c-.37-2.93.73-4.32,3.86-4a21.4,21.4,0,0,0,5.42-.25c1.45-.24,2.93-1.19,4,.43s-1,2.52-1.32,3.86Z"/><path class="cls-17" d="M575.17,69.12c-.78.2-1.95.83-2.28.53-3.55-3.21-1.19-7.41-1.62-11.16-.31-2.82,2.17-2.24,3.9-2.37Z"/><path class="cls-16" d="M506.17,527.12c-.37-2.94.75-4.31,3.88-4,2.3.2,4.64,0,6.95.08,2.74.13,3.47,1.53,2.17,4Z"/><path class="cls-17" d="M575.17,95.12c-.78.2-1.95.83-2.28.53-3.55-3.21-1.19-7.41-1.62-11.16-.32-2.82,2.17-2.24,3.9-2.37Z"/><path class="cls-16" d="M480.17,527.12c-.37-2.94.75-4.31,3.88-4,2.3.2,4.64,0,6.95.08,2.74.13,3.47,1.53,2.17,4Z"/><path class="cls-17" d="M575.17,121.12c-.78.2-1.95.83-2.28.53-3.55-3.21-1.19-7.41-1.62-11.16-.31-2.82,2.17-2.24,3.9-2.37Z"/><path class="cls-16" d="M454.17,527.12c-.37-2.94.75-4.31,3.88-4,2.3.2,4.64,0,6.95.08,2.74.13,3.47,1.53,2.17,4Z"/><path class="cls-17" d="M575.17,147.12c-.78.2-1.95.83-2.28.53-3.55-3.21-1.19-7.41-1.62-11.16-.31-2.82,2.17-2.24,3.9-2.37Z"/><path class="cls-16" d="M428.17,527.12c-.37-2.94.75-4.31,3.88-4,2.3.2,4.64,0,6.95.08,2.74.13,3.47,1.53,2.17,4Z"/><path class="cls-17" d="M575.17,173.12c-.78.2-1.95.83-2.28.53-3.55-3.21-1.19-7.41-1.62-11.16-.31-2.82,2.17-2.24,3.9-2.37Z"/><path class="cls-16" d="M402.17,527.12c-.37-2.94.75-4.31,3.88-4,2.3.2,4.64,0,6.95.08,2.74.13,3.47,1.53,2.17,4Z"/><path class="cls-17" d="M575.17,199.12c-.78.2-1.95.83-2.28.53-3.55-3.21-1.19-7.41-1.62-11.16-.31-2.82,2.17-2.24,3.9-2.37Z"/><path class="cls-16" d="M376.17,527.12c-.37-2.94.75-4.31,3.88-4,2.3.2,4.64,0,6.95.08,2.74.13,3.47,1.53,2.17,4Z"/><path class="cls-17" d="M575.17,225.12c-.78.2-1.95.83-2.28.53-3.55-3.21-1.19-7.41-1.62-11.16-.31-2.82,2.17-2.24,3.9-2.37Z"/><path class="cls-16" d="M350.17,527.12c-.37-2.94.75-4.31,3.88-4,2.3.2,4.64,0,6.95.08,2.74.13,3.47,1.53,2.17,4Z"/><path class="cls-17" d="M575.17,251.12c-.78.2-1.95.83-2.28.53-3.55-3.21-1.19-7.41-1.62-11.16-.31-2.82,2.17-2.24,3.9-2.37Z"/><path class="cls-16" d="M324.17,527.12c-.37-2.94.75-4.31,3.88-4,2.3.2,4.64,0,6.95.08,2.74.13,3.47,1.53,2.17,4Z"/><path class="cls-17" d="M575.17,277.12c-.78.2-1.95.83-2.28.53-3.55-3.21-1.19-7.41-1.62-11.16-.31-2.82,2.17-2.24,3.9-2.37Z"/><path class="cls-16" d="M298.17,527.12c-.37-2.94.75-4.31,3.88-4,2.3.2,4.64,0,6.95.08,2.74.13,3.47,1.53,2.17,4Z"/><path class="cls-17" d="M575.17,303.12c-.78.2-1.95.83-2.28.53-3.55-3.21-1.19-7.41-1.62-11.16-.31-2.82,2.17-2.24,3.9-2.37Z"/><path class="cls-16" d="M272.17,527.12c-.37-2.94.75-4.31,3.88-4,2.3.2,4.64,0,6.95.08,2.74.13,3.47,1.53,2.17,4Z"/><path class="cls-16" d="M532.17,527.12c-.37-2.94.75-4.31,3.88-4,2.3.2,4.64,0,7,.08,2.74.13,3.47,1.53,2.17,4Z"/><path class="cls-16" d="M246.17,527.12c-.37-2.94.75-4.31,3.88-4,2.3.2,4.64,0,6.95.08,2.74.13,3.47,1.53,2.17,4Z"/><path class="cls-17" d="M575.17,355.12c-.78.2-1.95.83-2.28.53-3.55-3.21-1.19-7.41-1.62-11.16-.31-2.82,2.17-2.24,3.9-2.37Z"/><path class="cls-16" d="M220.17,527.12c-.37-2.94.75-4.31,3.88-4,2.3.2,4.64,0,6.95.08,2.74.13,3.47,1.53,2.17,4Z"/><path class="cls-17" d="M575.17,381.12c-.78.2-1.95.83-2.28.53-3.55-3.21-1.19-7.41-1.62-11.16-.31-2.82,2.17-2.24,3.9-2.37Z"/><path class="cls-16" d="M194.17,527.12c-.37-2.94.75-4.31,3.88-4,2.3.2,4.64,0,6.95.08,2.74.13,3.47,1.53,2.17,4Z"/><path class="cls-17" d="M575.17,407.12c-.78.2-1.95.83-2.28.53-3.55-3.21-1.19-7.41-1.62-11.16-.31-2.82,2.17-2.24,3.9-2.37Z"/><path class="cls-16" d="M168.17,527.12c-.37-2.94.75-4.31,3.88-4,2.3.2,4.64,0,6.95.08,2.74.13,3.47,1.53,2.17,4Z"/><path class="cls-17" d="M575.17,433.12c-.78.2-1.95.83-2.28.53-3.55-3.21-1.19-7.41-1.62-11.16-.31-2.82,2.17-2.24,3.9-2.37Z"/><path class="cls-16" d="M142.17,527.12c-.37-2.94.75-4.31,3.88-4,2.3.2,4.64,0,6.95.08,2.74.13,3.47,1.53,2.17,4Z"/><path class="cls-17" d="M575.17,459.12c-.78.2-1.95.83-2.28.53-3.55-3.21-1.19-7.41-1.62-11.16-.31-2.82,2.17-2.24,3.9-2.37Z"/><path class="cls-16" d="M116.17,527.12c-.37-2.94.75-4.31,3.88-4,2.3.2,4.64,0,7,.08,2.74.13,3.47,1.53,2.17,4Z"/><path class="cls-17" d="M575.17,485.12c-.78.2-1.95.83-2.28.53-3.55-3.21-1.19-7.41-1.62-11.16-.31-2.82,2.17-2.24,3.9-2.37Z"/><path class="cls-17" d="M575.17,329.12c-.78.2-1.95.83-2.28.53-3.55-3.21-1.19-7.41-1.62-11.16-.31-2.82,2.17-2.24,3.9-2.37Z"/><path class="cls-17" d="M575.17,511.12c-.78.2-1.95.83-2.28.53-3.55-3.21-1.19-7.41-1.62-11.16-.31-2.82,2.17-2.24,3.9-2.37Z"/><path class="cls-16" d="M90.17,527.12c-.37-2.94.75-4.31,3.88-4,2.3.2,4.64,0,7,.08,2.74.13,3.47,1.53,2.17,4Z"/><path class="cls-16" d="M64.17,527.12c-.37-2.94.75-4.31,3.88-4,2.3.2,4.64,0,7,.08,2.74.13,3.47,1.53,2.17,4Z"/><path class="cls-17" d="M47.33,288.46c-.9,2.14,1.37,6.14-1.93,6.24-4.15.13-2-4.08-2.08-6.25-.08-2.33-1.7-6.66,1.44-6.76C48.91,281.55,46.33,286.11,47.33,288.46Z"/><path class="cls-17" d="M43,496c.87-2.24-1.27-6.26,1.78-6.38,3.85-.15,2.33,4,2.27,6.33s1.76,6.61-1.65,6.68C41.17,502.75,44.24,498.19,43,496Z"/><path class="cls-17" d="M47.43,470.24c-1,2.36,1.27,6.36-2,6.46-4.15.13-2-4.08-2.08-6.25-.08-2.33-1.7-6.66,1.44-6.76C49,463.54,46.15,468.17,47.43,470.24Z"/><path class="cls-17" d="M43.17,444.05a10.88,10.88,0,0,1,0-2c.3-1.63-1-4.43,1.48-4.56,3.18-.17,2.37,2.89,2.48,4.89.1,1.82,0,3.64,0,5.46,0,1.5.08,3.21-2.16,3.09-1.87-.1-1.79-1.61-1.82-2.94S43.17,445.37,43.17,444.05Z"/><path class="cls-17" d="M43.17,418.17c0-1.32,0-2.64,0-4S43,411.28,45,411.42c1.62.12,2.08,1.45,2.11,2.87,0,2.48,0,5,0,7.44,0,1.46.2,3.26-2,3.21s-1.88-1.86-1.94-3.3C43.13,420.49,43.17,419.33,43.17,418.17Z"/><path class="cls-17" d="M42.85,392.09c1.11-2.39-1.3-6.32,2.08-6.45s2.3,3.86,2.11,6c-.22,2.45,2,6.95-1.81,7C40.91,398.71,44.65,394,42.85,392.09Z"/><path class="cls-17" d="M47.17,367.27c-.89,1.59,1.78,5.57-2.18,5.48-3.21-.07-1.32-3.71-1.8-5.72a4.56,4.56,0,0,1,0-2c.42-1.92-1.29-5.36,1.49-5.47,3.72-.14,2.08,3.63,2.48,5.83A13.72,13.72,0,0,1,47.17,367.27Z"/><path class="cls-17" d="M43,339.94c.94-2.19-1.31-6.22,1.87-6.28,3.77-.08,2.27,4.1,2.19,6.4s1.82,6.6-1.71,6.6C41.1,346.67,44.28,342.11,43,339.94Z"/><path class="cls-17" d="M43.17,314.05a10.88,10.88,0,0,1,0-2c.3-1.63-1-4.43,1.48-4.56,3.18-.17,2.37,2.89,2.48,4.89.1,1.82,0,3.64,0,5.46,0,1.5.08,3.21-2.16,3.09-1.87-.1-1.79-1.61-1.82-2.94S43.17,315.37,43.17,314.05Z"/><path class="cls-17" d="M42.85,262.17c1.08-2.43-1.22-6.46,2-6.51,3.74,0,2.25,4.13,2.16,6.43s1.83,6.58-1.74,6.58C40.83,268.67,44.7,264,42.85,262.17Z"/><path class="cls-17" d="M47.37,236.48c-1.25,2,1.83,6.31-2.39,6.23-3.29-.07-1.19-4-1.81-6.19a1.06,1.06,0,0,1,0-.5c.57-2.21-1.36-6.31,1.52-6.36C48.92,229.59,46.34,234.05,47.37,236.48Z"/><path class="cls-17" d="M47.17,210.71c-1,1.73,1.95,6.08-2.1,6-3.65-.1-1.25-4.3-1.87-6.59a5.83,5.83,0,0,1,0-2.46c.28-1.56-1-4.26,1.89-4.14,2.45.1,2,2.57,2.08,4.34C47.2,208.66,47.17,209.49,47.17,210.71Z"/><path class="cls-17" d="M47.17,185.27c-.89,1.59,1.78,5.57-2.18,5.48-3.21-.07-1.32-3.71-1.8-5.72a4.56,4.56,0,0,1,0-2c.42-1.92-1.29-5.36,1.49-5.47,3.72-.14,2.08,3.63,2.48,5.83A13.72,13.72,0,0,1,47.17,185.27Z"/><path class="cls-17" d="M47.17,158.71c-1,1.73,1.95,6.08-2.1,6-3.65-.1-1.25-4.3-1.87-6.59a5.83,5.83,0,0,1,0-2.46c.28-1.56-1-4.26,1.89-4.14,2.45.1,2,2.57,2.08,4.34C47.2,156.66,47.17,157.49,47.17,158.71Z"/><path class="cls-17" d="M43.17,132.05a10.88,10.88,0,0,1,0-2c.3-1.63-1-4.43,1.48-4.56,3.18-.17,2.37,2.89,2.48,4.89.1,1.82,0,3.64,0,5.46,0,1.5.08,3.21-2.16,3.09-1.87-.1-1.79-1.61-1.82-2.94S43.17,133.37,43.17,132.05Z"/><path class="cls-17" d="M43,105.94c.94-2.19-1.31-6.22,1.87-6.28,3.77-.08,2.27,4.1,2.19,6.4s1.82,6.6-1.71,6.6C41.1,112.67,44.28,108.11,43,105.94Z"/><path class="cls-17" d="M43.17,80.15c0-1.16-.07-2.33,0-3.48.1-1.36-.49-3.39,1.87-3.23,1.89.13,2.09,1.83,2.1,3.38,0,2.49,0,5,0,7.45,0,1.4-.18,2.76-2.06,2.7s-1.89-1.5-1.91-2.85S43.17,81.47,43.17,80.15Z"/><path class="cls-17" d="M47.38,54.41c-1.25,2.05,1.81,6.34-2.36,6.3-3.35,0-1.73-4-1.72-6.15,0-2.47-1.73-6.94,2.2-6.88C48.86,47.74,46.28,52.1,47.38,54.41Z"/><path class="cls-17" d="M68.29,43c2.19.76,6.13-1.23,6.2,2.06s-3.86,2-6,2c-2.34,0-6.56,1.59-6.63-1.8C61.79,41.57,66.08,43.85,68.29,43Z"/><path class="cls-17" d="M94.36,47.26c-2.24-.86-6.51,1.39-6.48-2.17s4.24-1.81,6.57-1.85c2.15,0,6.07-1.45,6,1.91S96.52,46.5,94.36,47.26Z"/><path class="cls-17" d="M120.28,42.89c2.32.9,6.3-1.2,6.22,2.31-.08,3.22-4,1.86-6.17,1.8s-6.54,1.63-6.46-2S118.28,44.09,120.28,42.89Z"/><path class="cls-17" d="M198.55,47.36c-2.46-1-6.75,1.32-6.67-2.33.07-3.38,4.29-1.76,6.64-1.79,2.14,0,6.09-1.46,6,2S200.42,46.24,198.55,47.36Z"/><path class="cls-17" d="M224,47.26c-2.19-.75-6.12,1.22-6.18-2.08s3.88-2,6-1.94c2.34,0,6.55-1.59,6.6,1.82C230.52,48.67,226.24,46.39,224,47.26Z"/><path class="cls-17" d="M250.38,47.37c-2.4-1-6.62,1.4-6.52-2.49.07-3,4.09-1.72,6.31-1.64s6.42-1.73,6.33,2.12C256.41,48.57,252.31,46.25,250.38,47.37Z"/><path class="cls-17" d="M276.38,47.37c-2.4-1-6.62,1.4-6.52-2.49.07-3,4.09-1.72,6.31-1.64s6.42-1.73,6.33,2.12C282.41,48.57,278.31,46.25,276.38,47.37Z"/><path class="cls-17" d="M302.32,47.26c-2.22-.87-6.5,1.41-6.44-2.21.06-3.4,4.27-1.77,6.61-1.81,2.14,0,6.08-1.46,6,1.94S304.51,46.51,302.32,47.26Z"/><path class="cls-17" d="M328,47.26c-2.19-.75-6.13,1.21-6.19-2.08s3.88-2,6-1.94c2.34,0,6.55-1.6,6.61,1.82C334.51,48.67,330.23,46.39,328,47.26Z"/><path class="cls-17" d="M354.3,47.26c-2.21-.87-6.5,1.42-6.42-2.23.07-3.38,4.29-1.76,6.64-1.79,2.14,0,6.08-1.46,6,2C360.44,48.47,356.5,46.52,354.3,47.26Z"/><path class="cls-17" d="M146.18,43c2.14.92,6.35-1.51,6.3,2.34,0,3-4.07,1.76-6.27,1.68s-6.42,1.72-6.36-2.08C139.89,41.82,143.93,43.71,146.18,43Z"/><path class="cls-17" d="M380.38,47.37c-2.4-1-6.62,1.4-6.52-2.49.07-3,4.09-1.72,6.31-1.64s6.42-1.73,6.33,2.12C386.41,48.57,382.31,46.25,380.38,47.37Z"/><path class="cls-17" d="M406.81,43c2.06.73,5.7-1.13,5.73,2.12S408.94,47.15,407,47c-2.5-.18-7,1.73-7-1.86C399.9,41.35,404.5,44,406.81,43Z"/><path class="cls-17" d="M432.32,47.26c-2.22-.87-6.5,1.41-6.44-2.21.06-3.4,4.27-1.77,6.61-1.81,2.14,0,6.08-1.46,6,1.94S434.51,46.51,432.32,47.26Z"/><path class="cls-17" d="M458.3,47.26c-2.21-.87-6.49,1.41-6.42-2.22.07-3.39,4.28-1.77,6.63-1.8,2.14,0,6.07-1.46,6,2S460.49,46.51,458.3,47.26Z"/><path class="cls-17" d="M484.3,47.35c-2.45-.84-6.38,1.13-6.46-2.15s3.86-2,6-2c2.34,0,6.56-1.59,6.63,1.8C490.54,48.85,486.16,46.09,484.3,47.35Z"/><path class="cls-17" d="M510,47.26c-2.19-.75-6.12,1.22-6.18-2.08s3.88-2,6-1.94c2.34,0,6.55-1.59,6.6,1.82C516.52,48.67,512.24,46.39,510,47.26Z"/><path class="cls-17" d="M536,47.26c-2.19-.75-6.12,1.22-6.18-2.08s3.88-2,6-1.94c2.34,0,6.55-1.59,6.6,1.82C542.52,48.67,538.24,46.39,536,47.26Z"/><path class="cls-17" d="M562.07,47.24c-2.09-.9-6.31,1.53-6.21-2.36.07-3,4.09-1.72,6.31-1.64s6.42-1.73,6.32,2.12C568.42,48.44,564.38,46.54,562.07,47.24Z"/><path class="cls-17" d="M172.06,47.35c-2.33-.89-6.31,1.19-6.22-2.31.07-3.22,4-1.86,6.16-1.8s6.54-1.64,6.46,2S174.06,46.16,172.06,47.35Z"/><path class="cls-18" d="M263.71,279.36c1.32-3.93,1.78-8.1,3.54-11.93,7-15.31,18.69-24.48,35.37-27.19,9.82-1.6,19,.65,27.83,4.73a53.09,53.09,0,0,1,16,14.36,55.92,55.92,0,0,1,7,17.21c4.87,23.39-11.26,48-34.65,52.69-1.56.31-3.2.27-4.66,1h-10.8l-9.8-2.69a16.25,16.25,0,0,0,1.08-6.77c-.08-4.94,0-4.94,5-4.94,1.71,0,3.42,0,5.14,0a3.54,3.54,0,0,0,3-1.23c1-1.24,1.76-2.63,1-4.24a4.27,4.27,0,0,0-4.18-2.79c-8,.07-15.94,0-23.9.08-2.09,0-2.72-.65-2.56-2.64a48.63,48.63,0,0,0,0-5.4c-.07-2.59-1.74-4.34-4.06-4.35a4.08,4.08,0,0,0-4.15,4.27c-.08,2.57-.09,5.14-.13,7.71a12.88,12.88,0,0,1-2-3.55c-2.09-4.13-2.72-8.71-4.07-13.06Zm42.85,18.53a38.64,38.64,0,0,0-9.65,1.44c-1.33.39-2.59,1-2.15,2.59s1.62,1.83,3.08,1.34a13.82,13.82,0,0,1,2-.47c7.78-1.36,15.37-1.69,21.83,4.07a2,2,0,0,0,3.17-.06c1.17-1.33.35-2.33-.69-3.27C319.44,299.25,313.76,297.81,306.56,297.89Zm21-23.15a6.17,6.17,0,1,0,6.07,6.33A6.2,6.2,0,0,0,327.58,274.74Zm-31,6.06a6.17,6.17,0,1,0-6.12,6.27A6.21,6.21,0,0,0,296.62,280.8Zm40.27-14.32c1.4.1,2.74-.21,2.86-1.82s-1.12-2.19-2.69-2.34a27.24,27.24,0,0,0-6.87.06,19.6,19.6,0,0,0-12.12,6.51c-.88,1-1.19,2.1-.07,3.16a1.73,1.73,0,0,0,2.71-.11C325.06,267,330.57,265.56,336.89,266.48Zm-48.18-2a11.29,11.29,0,0,1,8.55,3.36,2,2,0,1,0,2.56-3,18.36,18.36,0,0,0-4.11-3c-5.31-2.39-10.47-1.5-15.64.44-1.34.5-2.32,1.28-1.72,2.86s1.82,1.46,3.18.95A18.32,18.32,0,0,1,288.71,264.47Z"/><path class="cls-7" d="M269.76,307.29c0-2.57.05-5.14.13-7.71a4.08,4.08,0,0,1,4.15-4.27c2.32,0,4,1.76,4.06,4.35a48.63,48.63,0,0,1,0,5.4c-.16,2,.47,2.67,2.56,2.64,8-.12,15.93,0,23.9-.08a4.27,4.27,0,0,1,4.18,2.79c.77,1.61,0,3-1,4.24a3.54,3.54,0,0,1-3,1.23c-1.72,0-3.43,0-5.14,0-5.05,0-5.11,0-5,4.94a16.25,16.25,0,0,1-1.08,6.77,8.73,8.73,0,0,1-4.6,2.69h-10.8c-6-2.13-8.62-6.41-8.27-12.75C270,314.12,269.8,310.7,269.76,307.29Z"/><path class="cls-1" d="M306.56,297.89c7.2-.08,12.88,1.36,17.59,5.64,1,.94,1.86,1.94.69,3.27a2,2,0,0,1-3.17.06c-6.46-5.76-14.05-5.43-21.83-4.07a13.82,13.82,0,0,0-2,.47c-1.46.49-2.68.15-3.08-1.34s.82-2.2,2.15-2.59A38.64,38.64,0,0,1,306.56,297.89Z"/><path class="cls-1" d="M327.58,274.74a6.17,6.17,0,1,1-6.26,6.13A6.21,6.21,0,0,1,327.58,274.74Z"/><path class="cls-1" d="M296.62,280.8a6.17,6.17,0,1,1-6.34-6.06A6.21,6.21,0,0,1,296.62,280.8Z"/><path class="cls-1" d="M336.89,266.47c-6.32-.91-11.83.5-16.18,5.47a1.73,1.73,0,0,1-2.71.11c-1.12-1.06-.81-2.15.07-3.16a19.6,19.6,0,0,1,12.12-6.51,27.24,27.24,0,0,1,6.87-.06c1.57.15,2.83.62,2.69,2.34S338.29,266.58,336.89,266.47Z"/><path class="cls-1" d="M288.71,264.47a18.32,18.32,0,0,0-7.18,1.6c-1.36.51-2.58.63-3.18-.95s.38-2.36,1.72-2.86c5.17-1.94,10.33-2.83,15.64-.44a18.36,18.36,0,0,1,4.11,3,2,2,0,1,1-2.56,3A11.29,11.29,0,0,0,288.71,264.47Z"/></svg>